<svg width="548" height="276" viewBox="0 0 548 276" fill="none" xmlns="http://www.w3.org/2000/svg">
<path d="M511.635 179.822C501.976 185.391 489.65 182.043 484.103 172.346C478.557 162.648 481.891 150.273 491.551 144.705C501.21 139.137 513.537 142.485 519.082 152.182C524.628 161.879 521.294 174.254 511.635 179.822ZM546.391 149.765L541.479 141.175L533.786 142.31L527.434 134.298L530.708 126.32L522.131 120.606L515.727 127.089L507.295 125.605L503.875 115.648L493.628 116.734L493.047 125.443L485.411 129.338L477.327 123.593L469.129 129.587L473.389 138.806L468.509 146.186L459.644 145.713L457.329 156.691L465.765 159.949L466.491 169.175L457.746 174.215L461.925 183.734L470.978 182.323L476.973 189.271L473.837 197.931L482.129 203.81L488.599 196.781L497.576 199.219L500.369 208.522L510.347 207.846L511.634 199.49L520.189 194.559L527.189 200.167L536.04 193.543L531.564 185.718L535.926 177.875L544.9 178.539L547.653 168.323L539.949 164.136L538.924 154.83L546.391 149.765Z" fill="#F3F2F1"/>
<path d="M79.0974 251.191C94.2671 238.031 95.7882 216.365 93.176 197.299C92.7397 194.118 92.7436 190.715 90.9422 188.07C89.1401 185.426 85.4137 183.875 82.7041 185.516C80.4562 186.877 79.7103 189.743 78.6229 192.161C77.1772 195.378 74.8156 198.161 71.8983 200.087C69.9809 201.352 67.5414 202.257 65.4279 201.357C62.5279 200.121 61.8134 196.349 61.5063 193.17C60.9353 187.247 60.3634 181.323 59.7924 175.401C59.4856 172.222 59.1614 168.978 57.8682 166.066C56.5744 163.153 54.1124 160.578 51.0159 160.043C47.9185 159.509 44.3764 161.636 44.0605 164.81C43.9284 166.132 44.329 167.448 44.3767 168.776C44.4246 170.103 43.9625 171.625 42.7528 172.121C41.5283 172.625 40.1701 171.856 39.129 171.024C35.5336 168.155 32.8937 164.253 30.4004 160.36C27.9074 156.465 25.4651 152.467 22.1426 149.277C18.8207 146.086 14.4374 143.738 9.88012 143.95C5.32223 144.162 0.783488 147.469 0.0974492 152.052C-0.590445 156.65 2.47848 160.924 5.68257 164.255C10.436 169.198 15.8942 173.439 21.8317 176.803C22.9019 177.41 24.0618 178.066 24.5641 179.203C25.4691 181.249 23.6866 183.559 21.6755 184.471C19.3987 185.504 16.8145 185.523 14.3777 186.069C11.9411 186.617 9.38064 187.986 8.68843 190.423C7.72584 193.804 10.7799 196.927 13.6701 198.88C19.4569 202.792 25.9037 205.686 32.6401 207.401C35.0554 208.015 37.5815 208.511 39.6269 209.958C41.6721 211.406 43.0986 214.143 42.1945 216.497C41.2898 218.855 38.4535 219.873 35.9691 219.67C33.4854 219.47 31.1662 218.366 28.7527 217.727C24.2359 216.53 18.6521 217.412 16.2549 221.474C14.6797 224.142 14.8733 227.611 16.1027 230.472C17.3313 233.332 19.4707 235.683 21.7052 237.825C29.5173 245.311 39.1166 250.994 49.5637 253.46C60.0092 255.926 69.4523 255.909 79.0974 251.191Z" fill="#F3F2F1"/>
<path d="M80.8052 265.349C79.3355 257.841 76.7604 249.063 72.9457 239.708C69.1487 230.343 64.1389 220.425 58.5438 210.232C57.1359 207.69 55.7447 205.177 54.3735 202.7C52.9993 200.232 51.6361 197.783 50.1561 195.472C47.2143 190.833 44.0347 186.599 40.8909 182.675C37.7481 178.748 34.6225 175.137 31.6764 171.782C28.721 168.43 25.9081 165.36 23.2255 162.671C17.8749 157.271 13.0543 153.437 9.63842 150.94C7.9326 149.686 6.5775 148.756 5.65021 148.139C5.2045 147.846 4.85498 147.616 4.59176 147.443C4.35174 147.29 4.22586 147.216 4.2206 147.224C4.2141 147.232 4.32886 147.324 4.55836 147.494C4.81323 147.679 5.15315 147.925 5.58432 148.238C6.48842 148.887 7.82153 149.845 9.50508 151.125C12.8747 153.676 17.6367 157.547 22.9342 162.968C25.5911 165.668 28.3795 168.747 31.3142 172.108C34.243 175.476 37.3499 179.093 40.4742 183.02C43.5982 186.943 46.7562 191.169 49.6746 195.786C51.1434 198.087 52.492 200.515 53.8678 202.991C55.2374 205.466 56.6267 207.978 58.0338 210.519C63.6233 220.705 68.6353 230.591 72.449 239.917C76.2782 249.232 78.884 257.962 80.3997 265.432" fill="#DADBD8"/>
<path d="M49.9876 195.465C50.0275 195.467 50.0853 194.974 50.1574 194.078C50.2335 193.183 50.3009 191.885 50.3603 190.279C50.4828 187.071 50.501 182.634 50.5029 177.742C50.5044 172.848 50.5855 168.423 50.7562 165.226C50.8375 163.627 50.9152 162.333 50.9814 161.44C51.0417 160.545 51.0562 160.048 51.016 160.042C50.9758 160.038 50.8855 160.526 50.755 161.415C50.6198 162.302 50.4778 163.596 50.3449 165.197C50.0668 168.399 49.9198 172.84 49.9189 177.739C49.9292 182.566 49.9394 186.933 49.9467 190.271C49.9409 191.777 49.9347 193.048 49.9297 194.067C49.9288 194.964 49.9467 195.462 49.9876 195.465Z" fill="#DADBD8"/>
<path d="M8.5282 192.047C8.53129 192.087 9.11684 192.095 10.1706 192.073C11.2238 192.059 12.7477 192.029 14.6311 192.053C18.3982 192.071 23.6007 192.278 29.3308 192.76C35.062 193.252 40.2292 193.918 43.9526 194.509C45.8177 194.79 47.32 195.059 48.3602 195.239C49.3995 195.423 49.9779 195.506 49.9875 195.466C49.9961 195.424 49.4323 195.266 48.4048 195.012C47.3763 194.763 45.8812 194.43 44.0198 194.093C40.3031 193.395 35.1254 192.66 29.3772 192.166C23.631 191.685 18.4055 191.542 14.6277 191.633C12.7382 191.663 11.2114 191.756 10.1582 191.842C9.10568 191.935 8.52607 192.005 8.5282 192.047Z" fill="#DADBD8"/>
<path d="M72.3685 239.008C72.3877 239.014 72.4657 238.833 72.5962 238.481C72.7434 238.062 72.9228 237.55 73.1402 236.931C73.6064 235.585 74.2302 233.616 74.9695 231.176C76.4514 226.294 78.2867 219.487 80.2108 211.948C82.1365 204.405 83.9062 197.59 85.284 192.686C85.961 190.3 86.5184 188.338 86.9326 186.88C87.1091 186.247 87.254 185.725 87.3728 185.297C87.467 184.934 87.5074 184.74 87.4884 184.732C87.4686 184.727 87.3918 184.908 87.2604 185.26C87.1131 185.679 86.9342 186.19 86.7164 186.809C86.2508 188.156 85.6269 190.124 84.8873 192.564C83.4058 197.446 81.5704 204.254 79.6454 211.796C77.7208 219.335 75.9506 226.15 74.5729 231.056C73.8947 233.44 73.3382 235.403 72.9241 236.86C72.7477 237.493 72.6027 238.016 72.4839 238.443C72.3899 238.807 72.349 239.001 72.3685 239.008Z" fill="#DADBD8"/>
<path d="M16.5203 227.116C16.5172 227.137 16.7099 227.194 17.0795 227.283C17.5169 227.381 18.0535 227.502 18.7037 227.648C20.2023 227.97 22.2245 228.404 24.685 228.932C29.7356 230.018 36.6938 231.596 44.3806 233.351C52.0693 235.108 59.0494 236.624 64.1239 237.604C66.6608 238.096 68.7174 238.471 70.1436 238.702C70.803 238.804 71.3462 238.889 71.7878 238.959C72.1649 239.01 72.3653 239.028 72.3684 239.007C72.3715 238.987 72.1785 238.931 71.8092 238.84C71.3731 238.742 70.8361 238.622 70.185 238.475C68.6867 238.154 66.6651 237.72 64.2046 237.192C59.154 236.107 52.1946 234.528 44.5059 232.772C36.819 231.016 29.8405 229.5 24.7663 228.52C22.2288 228.029 20.1723 227.652 18.7448 227.422C18.086 227.319 17.5438 227.234 17.1009 227.166C16.7235 227.113 16.5246 227.097 16.5203 227.116Z" fill="#DADBD8"/>
<path d="M438.635 119.221C438.596 119.166 439.568 118.697 440.931 117.373C441.621 116.724 442.344 115.799 443 114.628C443.649 113.454 444.19 111.993 444.397 110.314C444.598 108.644 444.493 106.746 443.819 104.877C443.139 103.026 441.997 101.155 440.274 99.7415C439.437 99.0126 438.457 98.4092 437.392 97.9489C436.335 97.4728 435.178 97.154 433.98 97.0331C431.584 96.735 429.026 97.2637 426.798 98.5205C424.591 99.8186 422.846 101.77 421.894 103.998C421.394 105.099 421.085 106.263 420.961 107.42C420.82 108.575 420.846 109.728 421.051 110.822C421.398 113.029 422.432 114.963 423.682 116.485C424.95 118.012 426.53 119.06 428.068 119.728C429.616 120.395 431.146 120.662 432.482 120.691C433.821 120.712 434.981 120.551 435.887 120.28C437.713 119.766 438.607 119.16 438.635 119.221C438.638 119.227 438.582 119.263 438.472 119.328C438.337 119.403 438.173 119.494 437.971 119.607C437.753 119.733 437.475 119.877 437.129 120.006C436.788 120.146 436.397 120.319 435.931 120.435C435.018 120.733 433.843 120.922 432.479 120.922C431.116 120.915 429.549 120.664 427.955 119.997C426.372 119.33 424.737 118.269 423.421 116.708C422.123 115.152 421.047 113.165 420.676 110.888C420.46 109.759 420.429 108.568 420.569 107.375C420.694 106.178 421.01 104.974 421.524 103.835C422.505 101.529 424.309 99.5038 426.592 98.162C428.897 96.8598 431.549 96.3169 434.025 96.6301C435.264 96.7581 436.46 97.0912 437.551 97.5864C438.648 98.0658 439.658 98.6938 440.519 99.4498C442.291 100.919 443.458 102.854 444.141 104.764C444.821 106.692 444.911 108.643 444.686 110.352C444.455 112.069 443.881 113.555 443.2 114.741C442.513 115.924 441.758 116.848 441.043 117.489C440.706 117.834 440.362 118.086 440.068 118.311C439.783 118.547 439.52 118.714 439.301 118.84C439.103 118.958 438.941 119.055 438.809 119.133C438.696 119.198 438.638 119.227 438.635 119.221Z" fill="#DADBD8"/>
<path d="M459.298 101.35C459.298 101.35 459.213 101.417 459.031 101.547C458.836 101.683 458.562 101.875 458.202 102.126C457.448 102.648 456.343 103.412 454.893 104.414L454.92 104.355C455.093 105.858 455.307 107.719 455.555 109.886L455.51 109.818C456.864 110.549 458.412 111.383 460.098 112.292L460.172 112.332L460.15 112.413C459.662 114.245 459.115 116.293 458.53 118.49L458.504 118.588L458.403 118.581C456.738 118.461 454.945 118.333 453.067 118.198L453.194 118.129C452.393 119.577 451.517 121.157 450.61 122.798L450.609 122.655C451.434 124.091 452.34 125.671 453.277 127.303L453.345 127.421L453.236 127.503C451.604 128.729 449.82 130.067 447.98 131.45L447.879 131.525L447.78 131.446C446.495 130.42 445.071 129.281 443.614 128.117L443.805 128.132C442.234 129.04 440.496 130.044 438.723 131.07L438.81 130.943C438.575 132.476 438.314 134.18 438.049 135.911L438.027 136.056L437.881 136.066C436.041 136.192 434.012 136.332 431.949 136.473L431.8 136.483L431.756 136.339C431.239 134.622 430.669 132.729 430.092 130.81L430.226 130.94C428.565 130.49 426.737 129.995 424.887 129.494L425.083 129.438C423.882 130.742 422.567 132.172 421.238 133.619L421.12 133.748L420.976 133.647C419.432 132.553 417.747 131.359 416.046 130.153L415.919 130.064L415.972 129.919C416.556 128.303 417.193 126.543 417.834 124.769L417.872 124.973C416.75 123.674 415.533 122.264 414.306 120.843L414.493 120.911C412.794 121.177 410.959 121.463 409.111 121.751L408.954 121.775L408.891 121.63C408.103 119.836 407.257 117.91 406.406 115.972L406.331 115.801L406.492 115.708L406.603 115.644C408.31 114.66 410.007 113.682 411.692 112.712L411.589 112.907C411.444 111.065 411.3 109.237 411.158 107.422L411.288 107.599C409.603 106.947 407.93 106.3 406.274 105.66L406.112 105.598L406.147 105.427C406.612 103.226 407.072 101.05 407.527 98.8995L407.562 98.7302L407.734 98.7397C409.512 98.8351 411.267 98.9297 413.005 99.0235L412.828 99.1117C413.809 97.63 414.776 96.1697 415.731 94.7261L415.716 94.9177C414.859 93.0591 414.017 91.2339 413.187 89.4358L413.12 89.2911L413.248 89.1981C414.905 87.989 416.529 86.8029 418.126 85.6375L418.235 85.5572L418.346 85.6359C419.976 86.7966 421.577 87.9373 423.148 89.0558L422.96 89.0422C424.513 88.2521 426.022 87.485 427.502 86.7314L427.405 86.8784C427.526 85.097 427.643 83.3815 427.757 81.701L427.766 81.5563L427.91 81.5412C430.017 81.3202 432.04 81.1088 434.003 80.9037L434.133 80.8902L434.176 81.0134C434.883 83.0818 435.553 85.0437 436.2 86.9357L436.08 86.8347C437.86 87.1503 439.504 87.4428 441.092 87.7258L440.964 87.7664C442.336 86.384 443.584 85.1248 444.779 83.9197L444.857 83.841L444.949 83.9022C446.805 85.1455 448.474 86.2631 450.04 87.3117L450.123 87.3665L450.085 87.4579C449.347 89.241 448.716 90.7689 448.126 92.1958L448.111 92.0893C449.563 93.9343 450.789 95.4924 451.87 96.866L451.792 96.835C453.698 96.5632 455.141 96.3573 456.368 96.1816L456.411 96.1752L456.432 96.2126C457.411 97.9543 458.131 99.2381 458.614 100.1C458.844 100.514 459.016 100.825 459.137 101.043C459.251 101.25 459.298 101.35 459.298 101.35C459.298 101.35 459.229 101.245 459.104 101.037C458.976 100.819 458.794 100.509 458.55 100.097C458.056 99.2493 457.32 97.9877 456.323 96.2754L456.387 96.3072C455.161 96.4932 453.72 96.7126 451.816 97.0028L451.769 97.0099L451.739 96.9718C450.648 95.6053 449.41 94.0559 447.945 92.2212L447.906 92.1727L447.93 92.1147C448.512 90.6846 449.136 89.1536 449.864 87.3665L449.907 87.5128C448.336 86.4706 446.663 85.3609 444.801 84.1272L444.97 84.1097C443.779 85.3196 442.537 86.5835 441.17 87.9715L441.118 88.0255L441.043 88.012C439.453 87.7354 437.809 87.4492 436.028 87.1392L435.939 87.1233L435.909 87.0366C435.256 85.1455 434.58 83.1867 433.866 81.1207L434.038 81.2304C432.075 81.441 430.052 81.6581 427.946 81.8838L428.099 81.7241C427.99 83.4046 427.877 85.1208 427.76 86.9023L427.754 87.0032L427.663 87.0501C426.184 87.8061 424.677 88.5764 423.126 89.3698L423.027 89.4198L422.938 89.3555C421.364 88.2402 419.76 87.1018 418.127 85.9444L418.348 85.9428C416.752 87.1113 415.13 88.299 413.476 89.5113L413.537 89.2728C414.369 91.0701 415.214 92.8937 416.073 94.7515L416.119 94.8517L416.058 94.9439C415.105 96.3891 414.139 97.8502 413.16 99.3335L413.098 99.4289L412.983 99.4226C411.247 99.3311 409.49 99.2381 407.713 99.1435L407.921 98.9838C407.468 101.134 407.009 103.31 406.545 105.511L406.42 105.278C408.078 105.918 409.749 106.563 411.436 107.214L411.557 107.261L411.566 107.39C411.71 109.204 411.854 111.033 411.999 112.875L412.009 113.005L411.896 113.07C410.212 114.041 408.516 115.019 406.808 116.003L406.698 116.067L406.783 115.805C407.634 117.743 408.48 119.669 409.268 121.464L409.048 121.343C410.896 121.055 412.731 120.769 414.43 120.504L414.541 120.488L414.617 120.574C415.842 121.995 417.058 123.405 418.181 124.706L418.258 124.796L418.218 124.909C417.574 126.683 416.937 128.442 416.351 130.057L416.278 129.823C417.979 131.03 419.663 132.225 421.206 133.32L420.945 133.347C422.277 131.903 423.593 130.474 424.794 129.171L424.875 129.083L424.989 129.114C426.838 129.618 428.666 130.115 430.326 130.567L430.43 130.595L430.461 130.699C431.035 132.618 431.602 134.512 432.116 136.231L431.923 136.096C433.987 135.959 436.016 135.823 437.856 135.7L437.689 135.855C437.956 134.124 438.221 132.421 438.459 130.888L438.473 130.804L438.546 130.761C440.322 129.739 442.061 128.74 443.635 127.834L443.737 127.776L443.827 127.85C445.28 129.017 446.701 130.159 447.984 131.189L447.784 131.186C449.629 129.81 451.416 128.476 453.052 127.256L453.01 127.456C452.08 125.822 451.178 124.239 450.359 122.799L450.317 122.728L450.358 122.656C451.272 121.019 452.152 119.442 452.96 117.998L453.001 117.922L453.086 117.93C454.964 118.073 456.757 118.209 458.421 118.336L458.294 118.426C458.892 116.232 459.449 114.188 459.947 112.357L459.998 112.478C458.319 111.557 456.776 110.712 455.427 109.972L455.386 109.951L455.381 109.905C455.152 107.737 454.956 105.873 454.797 104.369L454.793 104.331L454.824 104.31C456.278 103.342 457.386 102.605 458.145 102.101C458.514 101.857 458.798 101.671 459 101.538C459.193 101.412 459.298 101.35 459.298 101.35Z" fill="#DADBD8"/>
<path d="M524.539 267.375C524.539 267.489 411.744 267.582 272.636 267.582C133.48 267.582 20.7094 267.489 20.7094 267.375C20.7094 267.26 133.48 267.168 272.636 267.168C411.744 267.168 524.539 267.26 524.539 267.375Z" fill="#17282F"/>
<path d="M503.243 157.848L459.672 267.206H337.381L376.23 156.356C376.513 155.553 377.269 155.015 378.118 155.016L501.389 155.096C502.802 155.097 503.768 156.53 503.243 157.848Z" fill="#17282F"/>
<path d="M496.54 161L456.53 258.978C456.356 259.403 455.936 259.682 455.47 259.682H344.064C343.276 259.682 342.725 258.918 342.988 258.19L378.435 160.211C378.597 159.765 379.028 159.467 379.511 159.467H495.48C496.287 159.467 496.84 160.266 496.54 161Z" fill="#33535F"/>
<path d="M459.672 267.375H293.472V259.683H455.156L459.672 267.375Z" fill="#17282F"/>
<path d="M333.479 162.086C333.479 162.086 330.132 202.057 322.914 204.003C303.278 209.298 280.814 205.379 272.926 203.825C272.039 203.062 271.019 202.135 269.867 200.989C268.876 200.005 268.069 198.845 267.456 197.577C266.715 196.039 265.81 193.951 265.659 192.651C265.471 191.042 263.482 190.506 262.779 191.79C262.078 193.076 261.778 197.959 264.429 202.404C264.429 202.404 265.278 204.407 262.983 205.255C259.647 206.492 247.897 210.155 246.003 211.059C244.315 211.864 242.682 213.302 244.456 213.59C246.23 213.877 255.936 212.479 255.936 212.479C255.936 212.479 243.18 214.057 243.494 215.912C243.711 217.192 247.148 217.804 255.479 215.918C255.479 215.918 244.981 217.298 243.884 218.402C241.405 220.898 254.053 219.363 254.053 219.363C245.202 220.516 245.293 220.052 245.199 221.27C245.129 222.182 247.13 222.55 251.991 222.609C255.935 222.658 260.01 223.499 266.011 223.9C266.011 223.9 341.902 245.456 352.342 211.924C357.971 193.849 358.006 186.97 359.951 175.123L333.479 162.086Z" fill="#F8A58D"/>
<path d="M259.398 218.791C259.432 219.014 256.731 219.481 253.365 219.834C249.998 220.187 247.26 220.291 247.247 220.066C247.234 219.842 249.935 219.374 253.281 219.024C256.625 218.672 259.365 218.569 259.398 218.791Z" fill="#AC584F"/>
<path d="M259.315 215.332C259.352 215.554 256.501 216.214 252.949 216.806C249.396 217.398 246.487 217.699 246.45 217.476C246.413 217.255 249.263 216.594 252.817 216.002C256.368 215.41 259.278 215.11 259.315 215.332Z" fill="#AC584F"/>
<path d="M259.21 211.74C259.249 211.962 256.562 212.633 253.209 213.237C249.854 213.842 247.104 214.153 247.064 213.931C247.025 213.71 249.711 213.04 253.065 212.434C256.418 211.83 259.169 211.52 259.21 211.74Z" fill="#AC584F"/>
<path d="M431.975 230.313L436.908 259.159H359.951L362.898 236.744L431.975 230.313Z" fill="#17282F"/>
<path d="M341.272 131.227C341.272 131.227 330.085 164.957 330.801 166.305L355.422 172.037L341.272 131.227Z" fill="#FFCD00"/>
<path d="M362.367 194.585L359.952 242.864L434.296 234.414L422.661 187.75C422.661 187.75 414.662 133.65 400.087 127.656C394.456 125.338 389.077 123.919 384.62 122.649C375.333 120.003 365.611 119.281 356.038 120.525L354.542 120.72C348.336 121.527 343.144 125.601 341.272 131.227C341.272 131.227 341.01 147.845 346.097 158.845L362.367 194.585Z" fill="#F5E088"/>
<path d="M379.97 258.246C379.856 258.248 379.691 254.323 379.601 249.479C379.512 244.634 379.531 240.706 379.645 240.704C379.759 240.702 379.924 244.627 380.014 249.471C380.104 254.315 380.084 258.244 379.97 258.246Z" fill="#33535F"/>
<path d="M384.062 242.917C384.048 242.898 384.143 242.788 384.384 242.706C384.62 242.623 385.017 242.603 385.435 242.808C385.847 242.99 386.292 243.507 386.25 244.166C386.225 244.792 385.816 245.481 385.095 245.723C384.374 245.946 383.65 245.649 383.233 245.201C382.792 244.74 382.706 244.126 382.778 243.687C382.942 242.764 383.511 242.456 383.515 242.501C383.575 242.542 383.132 242.917 383.068 243.718C383.042 244.105 383.146 244.588 383.506 244.934C383.85 245.283 384.439 245.497 384.969 245.329C385.492 245.159 385.838 244.622 385.871 244.143C385.92 243.651 385.625 243.257 385.297 243.065C384.602 242.657 384.072 242.983 384.062 242.917Z" fill="#33535F"/>
<path d="M433.198 247.637C433.205 247.648 433.104 247.729 432.905 247.872C432.7 248.008 432.414 248.236 432.007 248.467C431.214 248.961 430.002 249.587 428.422 250.145C426.845 250.707 424.878 251.152 422.658 251.262C420.444 251.377 417.979 251.116 415.53 250.338C413.09 249.533 410.936 248.299 409.206 246.907C407.469 245.517 406.131 244.001 405.177 242.62C404.22 241.239 403.601 240.022 403.245 239.156C403.049 238.73 402.949 238.377 402.863 238.147C402.784 237.913 402.749 237.789 402.761 237.784C402.796 237.771 402.99 238.251 403.391 239.089C403.788 239.928 404.439 241.11 405.414 242.449C406.384 243.79 407.723 245.259 409.441 246.608C411.154 247.958 413.269 249.156 415.657 249.944C418.054 250.705 420.467 250.973 422.643 250.882C424.822 250.794 426.762 250.387 428.33 249.868C429.9 249.353 431.117 248.775 431.927 248.327C432.741 247.881 433.178 247.607 433.198 247.637Z" fill="#33535F"/>
<path d="M373.175 152.683C373.192 152.705 372.88 153.016 372.289 153.55C371.692 154.077 370.823 154.844 369.631 155.644C368.448 156.429 366.885 157.276 364.96 157.491C363.031 157.721 360.929 157.148 358.94 156.276C356.939 155.396 355.144 154.371 353.393 153.737C351.652 153.078 349.968 152.852 348.582 153.053C347.19 153.223 346.153 153.761 345.534 154.232C344.912 154.709 344.653 155.075 344.62 155.048C344.609 155.039 344.669 154.946 344.794 154.775C344.919 154.605 345.127 154.369 345.434 154.106C346.041 153.581 347.103 152.977 348.541 152.764C349.971 152.516 351.739 152.723 353.521 153.379C355.318 154.007 357.134 155.032 359.103 155.895C361.066 156.755 363.085 157.311 364.922 157.112C366.757 156.927 368.289 156.141 369.474 155.398C370.666 154.643 371.559 153.914 372.185 153.427C372.807 152.932 373.155 152.661 373.175 152.683Z" fill="#FAFAF9"/>
<path d="M353.67 133.804C353.7 133.834 353.215 134.39 352.245 135.068C351.282 135.748 349.796 136.497 348.026 136.888C346.255 137.274 344.593 137.215 343.434 137.001C342.271 136.79 341.6 136.488 341.615 136.448C341.635 136.38 342.33 136.58 343.475 136.712C344.618 136.847 346.223 136.856 347.938 136.484C349.651 136.104 351.106 135.424 352.088 134.822C353.074 134.223 353.623 133.751 353.67 133.804Z" fill="#FAFAF9"/>
<path d="M420.889 179.279C420.897 179.29 420.723 179.444 420.374 179.722C420.008 179.975 419.459 180.347 418.672 180.672C417.111 181.337 414.606 181.734 411.601 181.321C410.098 181.125 408.489 180.737 406.773 180.313C405.057 179.895 403.224 179.432 401.263 179.242C399.304 179.074 397.223 179.2 395.129 179.685C393.033 180.155 390.933 180.929 388.817 181.799C384.598 183.56 380.606 185.475 376.668 186.297C372.735 187.207 369.042 186.717 366.128 186.027C363.19 185.315 360.911 184.431 359.338 183.835C358.583 183.533 357.984 183.293 357.538 183.115C357.13 182.944 356.917 182.848 356.923 182.834C356.927 182.821 357.15 182.891 357.568 183.037C358.02 183.197 358.629 183.413 359.393 183.684C360.981 184.232 363.271 185.073 366.194 185.741C369.098 186.39 372.725 186.839 376.588 185.924C380.462 185.096 384.422 183.187 388.662 181.416C390.787 180.541 392.91 179.762 395.041 179.289C397.169 178.801 399.301 178.679 401.299 178.862C403.299 179.067 405.142 179.547 406.855 179.98C408.567 180.418 410.163 180.819 411.641 181.032C414.601 181.474 417.062 181.13 418.614 180.522C420.174 179.909 420.859 179.232 420.889 179.279Z" fill="#FAFAF9"/>
<path d="M361.967 208.839C361.96 208.835 361.996 208.783 362.07 208.685C362.162 208.568 362.273 208.427 362.409 208.254C362.736 207.903 363.226 207.376 363.991 206.865C364.747 206.345 365.756 205.824 367.007 205.45C368.258 205.093 369.741 204.857 371.381 204.91C374.692 204.963 378.425 206.338 382.337 208.087C384.307 208.945 386.363 209.87 388.58 210.568C390.79 211.256 393.184 211.745 395.627 211.554C398.072 211.37 400.334 210.439 402.364 209.317C404.407 208.203 406.279 206.931 408.174 205.89C410.055 204.831 411.98 204.02 413.885 203.651C415.791 203.299 417.619 203.38 419.229 203.68C422.466 204.321 424.777 205.824 426.134 207.027C427.503 208.248 428.038 209.123 428.038 209.123C428.032 209.127 427.986 209.084 427.902 208.994C427.803 208.885 427.684 208.752 427.537 208.59C427.385 208.405 427.174 208.199 426.924 207.956C426.682 207.702 426.377 207.439 426.03 207.15C424.657 205.998 422.356 204.56 419.175 203.968C417.593 203.691 415.804 203.63 413.95 203.989C412.098 204.361 410.217 205.166 408.359 206.224C406.487 207.263 404.622 208.541 402.556 209.673C400.509 210.811 398.185 211.776 395.659 211.967C393.141 212.163 390.697 211.657 388.46 210.955C386.214 210.242 384.148 209.303 382.185 208.435C378.285 206.669 374.614 205.292 371.371 205.202C369.761 205.132 368.304 205.343 367.07 205.673C365.837 206.019 364.837 206.509 364.081 206.999C362.56 207.991 362.013 208.889 361.967 208.839Z" fill="#FAFAF9"/>
<path d="M429.113 234.307C429.051 234.337 428.812 233.276 427.712 231.74C426.617 230.232 424.488 228.322 421.267 227.307C419.675 226.781 417.838 226.505 415.867 226.584C413.895 226.648 411.806 227.049 409.681 227.7C407.556 228.358 405.393 229.265 403.192 230.295C400.99 231.324 398.741 232.469 396.369 233.512C393.999 234.554 391.604 235.431 389.2 235.937C386.791 236.415 384.411 236.552 382.165 236.4C377.658 236.108 373.758 234.854 370.583 233.693C367.412 232.487 364.927 231.32 363.216 230.511C362.361 230.103 361.702 229.778 361.257 229.553C361.053 229.448 360.888 229.362 360.752 229.293C360.641 229.232 360.584 229.197 360.587 229.192C360.59 229.185 360.652 229.206 360.77 229.255C360.911 229.314 361.082 229.388 361.292 229.477C361.778 229.693 362.443 229.99 363.284 230.363C365.014 231.128 367.514 232.252 370.684 233.418C373.857 234.539 377.74 235.753 382.189 236.018C384.406 236.159 386.749 236.016 389.117 235.54C391.482 235.037 393.847 234.167 396.204 233.132C398.561 232.097 400.81 230.955 403.022 229.927C405.233 228.898 407.417 227.991 409.571 227.335C411.723 226.686 413.849 226.291 415.856 226.241C417.861 226.175 419.744 226.476 421.357 227.03C424.628 228.099 426.771 230.085 427.842 231.645C428.379 232.438 428.699 233.112 428.879 233.58C428.952 233.798 429.014 233.975 429.064 234.12C429.104 234.242 429.12 234.305 429.113 234.307Z" fill="#FAFAF9"/>
<path d="M370.292 241.758C370.239 241.74 370.185 241.723 370.132 241.705L370.906 241.619L370.292 241.758Z" fill="#111D23"/>
<path d="M370.132 241.706C369.844 241.611 369.556 241.518 369.267 241.423C371.892 239.548 374.519 237.614 377.064 235.657C378.663 236.013 380.366 236.282 382.165 236.399C382.744 236.439 383.331 236.459 383.926 236.459C385.639 236.459 387.412 236.291 389.2 235.937C389.661 235.839 390.122 235.729 390.581 235.606C385.261 239.15 378.852 241.009 372.45 241.265L370.906 241.619L370.132 241.706ZM383.824 236.07C383.273 236.07 382.727 236.052 382.189 236.018C380.521 235.918 378.932 235.685 377.431 235.375C387.622 227.506 396.401 219.333 398.073 213.518C398.276 212.811 398.474 212.1 398.666 211.382C400.049 210.955 401.351 210.344 402.556 209.673C403.696 209.049 404.773 208.38 405.826 207.732C404.683 217.505 400.784 227.223 393.321 233.545C392.773 234.01 392.207 234.454 391.628 234.877C390.791 235.138 389.954 235.362 389.117 235.54C387.323 235.9 385.545 236.07 383.824 236.07ZM398.791 210.909C401.503 200.625 403.111 189.365 404.064 179.971C405.546 188.594 406.729 197.301 406 205.996C405.965 206.409 405.925 206.823 405.881 207.237C404.742 207.931 403.584 208.653 402.364 209.317C401.241 209.938 400.048 210.5 398.791 210.909Z" fill="#FFCD00"/>
<path d="M398.666 211.382C398.708 211.225 398.75 211.067 398.791 210.909C400.048 210.5 401.241 209.938 402.364 209.317C403.584 208.653 404.743 207.932 405.881 207.237C405.864 207.402 405.845 207.567 405.826 207.732C404.774 208.38 403.696 209.049 402.557 209.673C401.351 210.344 400.049 210.955 398.666 211.382Z" fill="#BFC0BE"/>
<path d="M383.926 236.459C383.331 236.459 382.744 236.439 382.165 236.399C380.366 236.282 378.663 236.013 377.065 235.657C377.187 235.563 377.309 235.468 377.431 235.375C378.932 235.685 380.521 235.918 382.189 236.018C382.727 236.052 383.273 236.07 383.824 236.07C385.545 236.07 387.323 235.9 389.117 235.54C389.954 235.362 390.792 235.138 391.628 234.877C391.284 235.127 390.936 235.371 390.581 235.607C390.122 235.729 389.661 235.839 389.2 235.937C387.412 236.291 385.639 236.459 383.926 236.459Z" fill="#BFC0BE"/>
<path d="M317.925 241.662C318.975 242.314 321.061 242.855 322.645 243.197C323.951 243.478 325.295 243.546 326.621 243.373C327.238 243.292 327.822 243.206 328.37 243.118C330.926 242.707 333.301 241.582 335.256 239.878C343.831 232.403 367.042 208.759 371.19 203.409C376.176 196.976 377.574 154.464 377.574 154.464L405.423 159.042C405.423 159.042 404.926 189.682 398.073 213.519C393.715 228.678 341.045 259.868 340.999 259.896C337.097 264.192 332.707 268.839 330.012 271.108C324.398 275.832 323.969 275.333 323.533 274.583C322.361 272.567 333.095 265.896 329.959 265.988C326.824 266.078 317.776 275.679 316.637 273.522C315.153 270.711 326.517 263.935 327.436 263.29C328.329 262.663 327.46 261.29 326.661 261.916C325.511 262.816 313.212 271.982 311.727 269.235C310.905 267.713 313.766 266.483 313.766 266.483C313.766 266.483 325.902 258.759 325.157 257.486C324.403 256.194 317.125 260.488 314.773 262.111C312.449 263.713 310.744 263.255 310.892 261.632C310.993 260.526 318.08 255.386 320.442 253.836C322.806 252.287 329.364 248.152 324.48 247.55C319.595 246.948 316.067 244.637 315.546 243.346C315.025 242.054 316.625 240.855 317.925 241.662Z" fill="#F8A58D"/>
<path d="M388.085 126.764C393.467 125.627 399.066 127.466 402.721 131.289C405.967 134.683 409.23 140.361 408.953 149.37C408.413 166.944 407.031 172.939 407.031 172.939L372.705 171.745L374.05 142.217C374.05 142.217 376.702 129.168 388.085 126.764Z" fill="#F03D5F"/>
<path d="M407.031 172.939L404.697 172.858L407.031 172.939C407.031 172.939 408.413 166.944 408.953 149.37C409 147.828 408.944 146.384 408.802 145.032C408.98 146.525 409.055 148.12 409.003 149.817C408.463 167.391 407.031 172.939 407.031 172.939Z" fill="#DA314B"/>
<path d="M407.031 172.939L404.697 172.858L376.618 171.881L372.705 171.745L374.101 142.665C374.101 142.665 376.702 129.168 388.085 126.764C389.148 126.54 390.22 126.431 391.283 126.431C395.603 126.431 399.788 128.221 402.721 131.289C405.356 134.044 408.034 138.597 408.802 145.032C408.944 146.384 409 147.828 408.953 149.37C408.413 166.944 407.031 172.939 407.031 172.939Z" fill="#FFCD00"/>
<path d="M408.328 162.696C408.295 162.73 407.938 162.341 407.171 161.799C406.406 161.259 405.189 160.616 403.57 160.19C401.954 159.785 399.927 159.597 397.754 159.987C395.587 160.399 393.316 161.377 390.965 162.416C388.608 163.46 386.345 164.479 384.135 164.999C381.93 165.509 379.863 165.53 378.174 165.287C376.483 165.027 375.176 164.504 374.358 164.012C373.951 163.761 373.645 163.554 373.457 163.386C373.263 163.227 373.165 163.139 373.175 163.127C373.203 163.089 373.605 163.433 374.436 163.871C375.262 164.31 376.554 164.779 378.214 164.998C379.872 165.197 381.896 165.147 384.047 164.628C386.196 164.103 388.441 163.082 390.798 162.037C393.158 160.996 395.446 160.018 397.688 159.611C399.929 159.231 402 159.456 403.645 159.907C405.292 160.38 406.516 161.078 407.265 161.669C407.636 161.971 407.914 162.214 408.08 162.405C408.253 162.586 408.338 162.685 408.328 162.696Z" fill="#FAFAF9"/>
<path d="M406.927 137.818C406.938 137.845 406.537 138.016 405.799 138.305C405.433 138.458 404.974 138.61 404.434 138.771C403.9 138.944 403.286 139.128 402.595 139.283C401.226 139.648 399.558 139.915 397.701 140.149C395.838 140.334 393.778 140.439 391.618 140.372C389.457 140.285 387.408 140.044 385.564 139.708C383.731 139.325 382.09 138.911 380.765 138.401C380.092 138.177 379.502 137.924 378.993 137.686C378.475 137.463 378.038 137.256 377.696 137.051C377.004 136.666 376.629 136.442 376.644 136.417C376.657 136.392 377.058 136.569 377.768 136.907C378.117 137.089 378.562 137.272 379.082 137.473C379.597 137.689 380.187 137.92 380.86 138.124C382.183 138.594 383.815 138.974 385.633 139.333C387.462 139.645 389.491 139.872 391.632 139.959C393.773 140.025 395.813 139.932 397.662 139.77C399.504 139.558 401.163 139.323 402.529 138.998C403.219 138.863 403.834 138.699 404.37 138.549C404.912 138.411 405.375 138.282 405.747 138.152C406.496 137.912 406.917 137.792 406.927 137.818Z" fill="#FAFAF9"/>
<path d="M369.972 88.5182C369.845 89.4236 370.3 90.3855 371.08 90.8577C371.861 91.3299 372.921 91.2869 373.659 90.752C375.064 89.7352 374.927 87.5921 374.363 85.9489C373.799 84.3058 372.945 82.5919 373.407 80.917C373.76 79.6347 374.811 78.6935 375.578 77.6077C376.911 75.7181 377.385 73.1934 376.646 70.9993C375.907 68.8045 373.906 67.0421 371.614 66.7711C369.275 66.4952 366.622 67.6208 364.698 66.2543C363.305 65.2646 362.928 63.3417 361.773 62.0801C359.978 60.1214 356.854 60.2573 354.315 61.0221C351.776 61.7868 349.265 63.038 346.625 62.8035C344.419 62.6064 342.445 61.3933 340.314 60.7931C335.694 59.4918 330.351 61.4307 327.628 65.3974C324.905 69.3641 325.001 75.067 327.857 78.9384C328.883 80.3295 330.286 81.5187 331.964 81.9114" fill="#17282F"/>
<path d="M366.092 138.395C358.951 139.707 352.099 134.97 350.766 127.806C350.003 123.707 349.37 120.254 349.37 120.254C349.37 120.254 338.765 120.409 336.877 110.062C334.989 99.7142 332.868 76.9725 332.868 76.9725L332.737 75.5973C343.817 68.3928 358.099 68.9095 369.764 75.1132L370.112 77.2524L376.813 123.9C377.589 130.81 372.905 137.143 366.092 138.395Z" fill="#F8A58D"/>
<path d="M354.52 102.19L347.889 105.419C347.889 105.419 350.002 107.8 352.795 106.196C355.693 104.531 354.52 102.19 354.52 102.19Z" fill="white"/>
<path d="M349.328 120.107C349.328 120.107 355.945 119.523 362.139 113.961C362.139 113.961 360.224 121.969 349.76 122.798L349.328 120.107Z" fill="#F68260"/>
<path d="M370.64 84.235C370.856 84.1253 378.239 82.3382 378.484 91.2924C378.729 100.247 369.64 97.5335 369.618 97.2768C369.594 97.0208 370.64 84.235 370.64 84.235Z" fill="#F8A58D"/>
<path d="M372.264 94.0597C372.302 94.0303 372.423 94.1646 372.689 94.2783C372.948 94.3888 373.39 94.4579 373.85 94.2703C374.783 93.8975 375.535 92.3736 375.534 90.7591C375.535 89.9427 375.344 89.1716 375.039 88.5372C374.748 87.8894 374.313 87.4434 373.838 87.3718C373.363 87.2757 373.034 87.5698 372.932 87.825C372.82 88.0778 372.881 88.2558 372.834 88.2725C372.81 88.2956 372.639 88.127 372.7 87.7558C372.732 87.5769 372.831 87.3631 373.035 87.185C373.245 87.0038 373.557 86.9068 373.889 86.9338C374.578 86.9624 375.215 87.5801 375.55 88.2765C375.924 88.9752 376.158 89.8425 376.157 90.7583C376.149 92.5636 375.275 94.2775 373.996 94.6869C373.373 94.8681 372.845 94.6932 372.568 94.4889C372.286 94.2759 372.233 94.0764 372.264 94.0597Z" fill="#F68260"/>
<path d="M331.083 81.6235C331.083 81.6235 337.758 83.8056 345.349 78.6027C350.331 75.1885 356.385 73.0231 357.907 73.9134C359.428 74.8037 360.472 80.2944 365.989 81.1815C365.989 81.1815 367.064 91.7844 371.204 90.8321C375.343 89.8797 370.495 73.8951 370.495 73.8951L359.956 68.2741L348.478 67.6898L336.324 70.7647L329.889 75.9977L331.083 81.6235Z" fill="#17282F"/>
<path d="M370.04 64.9594C370.044 65.0826 368.941 65.1128 367.809 65.7671C366.662 66.3998 366.064 67.3307 365.961 67.2631C365.857 67.2329 366.348 66.1081 367.606 65.4062C368.856 64.6907 370.068 64.8545 370.04 64.9594Z" fill="#17282F"/>
<path d="M365.161 61.4037C365.24 61.3735 365.839 62.7845 365.875 64.6764C365.891 65.6184 365.695 66.4658 365.479 67.0382C365.257 67.6121 365.036 67.9237 364.992 67.9023C364.875 67.853 365.502 66.4857 365.463 64.6788C365.433 62.8846 365.023 61.4355 365.161 61.4037Z" fill="#17282F"/>
<path d="M336.04 92.0475C336.052 92.8512 336.74 93.5046 337.577 93.5078C338.413 93.5102 339.081 92.8623 339.069 92.0578C339.058 91.2542 338.369 90.5999 337.534 90.5967C336.698 90.5944 336.028 91.243 336.04 92.0475Z" fill="#17282F"/>
<path d="M335.997 90.8765C336.194 91.0657 337.298 90.1555 338.929 90.0776C340.555 89.9767 341.793 90.7581 341.96 90.5482C342.043 90.4552 341.833 90.107 341.293 89.7525C340.762 89.3995 339.869 89.0752 338.854 89.1309C337.839 89.1873 337.004 89.6054 336.533 90.014C336.051 90.4258 335.899 90.7931 335.997 90.8765Z" fill="#17282F"/>
<path d="M352.076 91.2039C352.126 92.0068 352.844 92.6268 353.68 92.5903C354.515 92.5537 355.152 91.8748 355.103 91.0719C355.053 90.269 354.336 89.649 353.5 89.6848C352.665 89.7213 352.027 90.401 352.076 91.2039Z" fill="#17282F"/>
<path d="M351.629 90.0179C351.835 90.1968 352.898 89.2357 354.52 89.0815C356.14 88.9034 357.415 89.626 357.571 89.409C357.649 89.312 357.425 88.9742 356.867 88.6459C356.32 88.3175 355.414 88.0361 354.402 88.1387C353.392 88.2436 352.576 88.7007 352.124 89.1308C351.664 89.5648 351.528 89.9384 351.629 90.0179Z" fill="#17282F"/>
<path d="M346.909 102.685C346.907 102.592 345.881 102.516 344.224 102.466C343.806 102.463 343.406 102.419 343.308 102.141C343.182 101.85 343.311 101.385 343.465 100.881C343.758 99.8352 344.063 98.739 344.384 97.5903C345.649 92.9105 346.521 89.0789 346.333 89.0296C346.145 88.9803 344.967 92.7332 343.702 97.413C343.4 98.5665 343.111 99.6651 342.836 100.717C342.726 101.206 342.508 101.768 342.78 102.372C342.923 102.672 343.249 102.868 343.521 102.914C343.794 102.969 344.029 102.951 344.235 102.943C345.89 102.871 346.912 102.779 346.909 102.685Z" fill="#17282F"/>
<path d="M350.621 85.1508C350.824 85.5785 352.425 85.2096 354.353 85.2541C356.281 85.2597 357.872 85.6691 358.086 85.2462C358.18 85.0459 357.872 84.6548 357.209 84.2859C356.552 83.9179 355.53 83.6063 354.374 83.5904C353.219 83.5768 352.189 83.8622 351.522 84.2136C350.85 84.5649 350.532 84.9473 350.621 85.1508Z" fill="#17282F"/>
<path d="M335.776 86.5C336.098 86.8418 337.179 86.3482 338.522 86.1987C339.861 86.0016 341.031 86.2043 341.255 85.7917C341.352 85.5922 341.137 85.2392 340.605 84.9372C340.081 84.6359 339.233 84.4308 338.311 84.5492C337.39 84.6685 336.621 85.0826 336.19 85.5079C335.751 85.9348 335.632 86.3315 335.776 86.5Z" fill="#17282F"/>
<path d="M48.5668 160.869L91.0025 267.375H210.103L172.266 159.417C171.992 158.635 171.255 158.111 170.428 158.112L50.3735 158.189C48.9964 158.19 48.0555 159.586 48.5668 160.869Z" fill="#17282F"/>
<path d="M55.0961 163.774L94.0622 259.197C94.2308 259.611 94.6402 259.882 95.0947 259.882H203.595C204.363 259.882 204.899 259.138 204.642 258.429L170.12 163.007C169.962 162.572 169.542 162.282 169.072 162.282H56.1282C55.3416 162.282 54.8044 163.059 55.0961 163.774Z" fill="#33535F"/>
<path d="M91.0023 267.375H252.867V259.884H95.3993L91.0023 267.375Z" fill="#17282F"/>
<path d="M277.149 163.637C277.149 163.637 280.117 159.771 278.112 155.304C276.108 150.837 270.721 145.742 270.721 145.742C269.155 145.337 271.229 136.353 272.138 133.378C273.038 130.439 272.022 128.78 270.405 129.427C269.303 129.868 266.303 138.905 265.471 141.869C265.015 143.488 264.17 146.666 263.14 148.401C262.287 149.841 261.306 150.289 260.317 148.033C258.137 143.058 254.638 140.033 253.147 139.874C251.655 139.715 250.938 141.767 252.182 142.895C253.186 143.807 254.408 145.845 255.266 147.415C255.973 148.708 256.472 150.107 256.719 151.558C256.932 152.815 257.084 153.933 257.201 154.939C257.201 154.939 257.697 159.358 257.141 162.453L227.306 197.829L220.795 173.88L220.191 172.037L194.503 181.618C193.736 181.823 200.025 200.578 204.015 212.234C205.989 218 210.34 222.628 215.961 224.938C224.952 228.633 235.294 225.681 241.001 217.79L272.937 171.247L272.248 170.775L272.894 171.071L277.149 163.637Z" fill="#C0776A"/>
<path d="M273.165 148.085C273.192 148.095 273.1 148.407 272.91 148.96C272.682 149.594 272.401 150.371 272.07 151.29C271.689 152.298 271.252 153.456 270.774 154.726C270.509 155.355 270.336 156.088 269.8 156.727C269.525 157.036 269.152 157.285 268.703 157.352C268.25 157.429 267.757 157.211 267.475 156.86C267.18 156.518 267.034 156.072 267.016 155.653C266.992 155.232 267.065 154.832 267.151 154.459C267.329 153.72 267.518 153.02 267.712 152.352C268.099 151.021 268.506 149.839 268.876 148.859C269.247 147.878 269.582 147.099 269.826 146.567C270.072 146.034 270.228 145.75 270.252 145.76C270.28 145.773 270.173 146.079 269.975 146.628C269.776 147.177 269.485 147.97 269.15 148.957C268.818 149.945 268.441 151.128 268.077 152.457C267.896 153.12 267.714 153.824 267.544 154.549C267.379 155.253 267.315 156.046 267.787 156.591C268.01 156.856 268.327 156.992 268.648 156.943C268.969 156.899 269.277 156.706 269.498 156.458C269.949 155.941 270.149 155.219 270.42 154.586C270.929 153.329 271.393 152.182 271.798 151.183C272.177 150.284 272.499 149.522 272.761 148.901C272.996 148.366 273.139 148.075 273.165 148.085Z" fill="#B85549"/>
<path d="M276.193 151.581C276.22 151.591 276.138 151.865 275.969 152.35C275.8 152.835 275.543 153.531 275.218 154.388C274.889 155.246 274.505 156.26 274.047 157.394C273.805 157.951 273.48 158.587 272.858 158.984C272.557 159.177 272.189 159.312 271.795 159.299C271.401 159.286 271.015 159.099 270.74 158.821C270.172 158.264 270.032 157.449 270.094 156.773C270.153 156.082 270.326 155.466 270.478 154.874C270.799 153.694 271.187 152.663 271.542 151.815C271.901 150.966 272.23 150.298 272.469 149.843C272.709 149.389 272.86 149.147 272.885 149.16C272.944 149.187 272.46 150.215 271.814 151.923C271.495 152.778 271.141 153.806 270.845 154.971C270.706 155.554 270.544 156.175 270.497 156.801C270.448 157.422 270.579 158.084 271.03 158.526C271.463 158.989 272.143 158.977 272.642 158.642C273.152 158.326 273.458 157.776 273.699 157.24C274.158 156.151 274.577 155.154 274.947 154.277C275.307 153.435 275.606 152.755 275.821 152.289C276.035 151.823 276.167 151.571 276.193 151.581Z" fill="#B85549"/>
<path d="M277.855 155.113C277.909 155.131 277.676 155.994 277.255 157.377C277.041 158.07 276.798 158.882 276.486 159.802C276.322 160.255 276.035 160.793 275.475 161.051C275.205 161.181 274.853 161.21 274.553 161.09C274.252 160.974 274.011 160.753 273.842 160.491C273.502 159.946 273.503 159.335 273.524 158.814C273.548 158.284 273.616 157.776 273.715 157.299C273.913 156.346 274.23 155.523 274.56 154.869C274.892 154.217 275.232 153.73 275.486 153.412C275.74 153.094 275.908 152.943 275.927 152.958C275.985 153.001 275.408 153.695 274.823 154.996C274.535 155.645 274.257 156.451 274.088 157.373C274.002 157.833 273.945 158.322 273.928 158.831C273.908 159.333 273.931 159.863 274.188 160.266C274.445 160.678 274.917 160.879 275.31 160.68C275.717 160.501 275.968 160.089 276.132 159.665C276.439 158.801 276.723 158.002 276.98 157.284C277.471 155.926 277.802 155.094 277.855 155.113Z" fill="#B85549"/>
<path d="M267.67 162.784C267.599 162.775 267.673 162.155 267.594 161.167C267.519 160.183 267.231 158.832 266.559 157.484C265.88 156.141 264.969 155.104 264.224 154.459C263.481 153.808 262.941 153.499 262.975 153.437C262.992 153.398 263.59 153.618 264.409 154.233C265.225 154.839 266.219 155.894 266.927 157.298C267.63 158.704 267.884 160.134 267.885 161.154C267.891 162.179 267.711 162.792 267.67 162.784Z" fill="#B85549"/>
<path d="M101.364 259.168L178.792 259.561L179.741 245.854L119.343 218.867C114.038 225.23 110.835 232.68 109.311 240.998L101.364 259.168Z" fill="#17282F"/>
<path d="M137.947 232.776C137.968 232.795 137.719 233.076 137.247 233.569C137.015 233.821 136.722 234.117 136.351 234.428C135.983 234.744 135.583 235.127 135.083 235.478C134.597 235.848 134.06 236.248 133.444 236.617C132.848 237.022 132.164 237.371 131.453 237.754C130.004 238.467 128.347 239.124 126.544 239.601C124.733 240.055 122.965 240.28 121.353 240.355C120.546 240.362 119.778 240.387 119.063 240.32C118.345 240.293 117.683 240.203 117.08 240.113C116.474 240.047 115.939 239.904 115.465 239.806C114.99 239.713 114.591 239.595 114.267 239.487C113.619 239.282 113.265 239.156 113.274 239.129C113.297 239.043 114.727 239.528 117.119 239.824C117.717 239.893 118.372 239.966 119.081 239.977C119.786 240.028 120.542 239.991 121.337 239.973C122.923 239.879 124.66 239.647 126.441 239.199C128.215 238.731 129.849 238.095 131.285 237.411C131.989 237.043 132.67 236.712 133.265 236.325C133.879 235.973 134.419 235.594 134.91 235.243C136.864 233.827 137.886 232.712 137.947 232.776Z" fill="#33535F"/>
<path d="M158.998 258.015C158.945 257.991 159.329 256.994 159.937 255.376C160.591 253.654 161.419 251.474 162.335 249.063C163.269 246.657 164.112 244.482 164.779 242.764C165.419 241.158 165.838 240.173 165.891 240.193C165.945 240.213 165.622 241.234 165.052 242.868C164.48 244.5 163.662 246.745 162.72 249.211C161.778 251.676 160.888 253.895 160.207 255.487C159.869 256.282 159.579 256.92 159.367 257.356C159.154 257.792 159.025 258.027 158.998 258.015Z" fill="#33535F"/>
<path d="M159.433 239.553C159.472 239.616 158.799 239.725 158.404 240.546C158.217 240.938 158.161 241.5 158.473 241.973C158.763 242.441 159.385 242.808 160.009 242.714C160.633 242.613 161.113 242.074 161.248 241.539C161.402 240.992 161.179 240.475 160.882 240.158C160.257 239.496 159.583 239.598 159.6 239.527C159.596 239.503 159.744 239.444 160.023 239.462C160.298 239.478 160.713 239.601 161.09 239.952C161.462 240.284 161.79 240.929 161.618 241.629C161.467 242.302 160.901 242.981 160.072 243.124C159.24 243.241 158.496 242.766 158.149 242.171C157.773 241.557 157.889 240.841 158.144 240.412C158.397 239.963 158.755 239.72 159.011 239.62C159.272 239.518 159.43 239.53 159.433 239.553Z" fill="#33535F"/>
<path d="M211.8 143.134C211.8 143.134 223.121 176.571 222.483 177.936L199.561 184.244L211.8 143.134Z" fill="#F03D5F"/>
<path d="M201.478 183.716C203.915 179.16 206.346 174.398 207.916 170.777C211.072 163.497 212.031 153.757 212.319 148.006C212.402 146.349 212.212 144.723 211.784 143.185L211.8 143.133C211.8 143.133 222.511 174.767 222.51 177.753C222.51 177.837 222.501 177.898 222.484 177.936L201.478 183.716Z" fill="#FFCD00"/>
<path d="M193.221 198.538L185.997 229.323L181.303 246.551L119.343 218.867L139.005 187.112C139.005 187.112 149.779 142.893 164.974 134.717C176.017 128.776 185.401 130.842 186.806 130.842L200.002 132.672C200.293 132.712 200.582 132.76 200.868 132.817C207.902 134.206 212.679 140.817 212.319 148.006C212.031 153.757 211.072 163.497 207.916 170.777C203.691 180.521 193.221 198.538 193.221 198.538Z" fill="#F5E088"/>
<path d="M183.614 239.642C183.614 239.642 183.458 239.579 183.161 239.437C182.858 239.307 182.429 239.073 181.88 238.74C180.793 238.07 179.254 236.897 177.779 234.936C176.321 232.995 174.937 230.174 174.737 226.666C174.634 224.926 174.925 223.015 175.786 221.218C176.22 220.325 176.809 219.463 177.594 218.753C178.369 218.033 179.379 217.526 180.476 217.326C182.707 216.915 185.106 218.075 186.565 219.997C187.288 220.968 187.807 222.154 187.894 223.428C188.008 224.69 187.751 226 187.212 227.186C186.146 229.566 183.941 231.539 181.243 232.237C178.561 232.967 175.578 232.613 172.929 231.419C170.269 230.212 167.964 228.203 166.06 225.851C165.105 224.672 164.22 223.418 163.444 222.074C162.67 220.732 162.019 219.282 161.653 217.728C161.272 216.182 161.233 214.521 161.601 212.932C161.976 211.355 162.779 209.815 164.076 208.746C165.367 207.675 167.101 207.171 168.785 207.359C169.625 207.466 170.458 207.752 171.161 208.256C171.856 208.764 172.421 209.459 172.768 210.249C173.471 211.838 173.436 213.661 172.859 215.246C172.266 216.842 171.125 218.146 169.825 219.14C167.18 221.112 164.012 222.111 160.889 222.475C157.753 222.825 154.582 222.382 151.775 221.2C148.969 220.002 146.606 218 144.94 215.615C143.261 213.233 142.317 210.419 142.254 207.647C142.228 206.263 142.427 204.885 142.902 203.621C143.377 202.358 144.138 201.207 145.173 200.387C146.21 199.576 147.476 199.114 148.743 199.061C150.007 199.002 151.293 199.411 152.198 200.259C153.106 201.105 153.6 202.283 153.723 203.442C153.855 204.605 153.661 205.765 153.232 206.791C152.35 208.885 150.469 210.179 148.662 210.911C146.819 211.648 144.943 211.886 143.214 211.92C139.733 211.965 136.792 211.125 134.568 210.149C132.334 209.156 130.787 208.028 129.804 207.208C129.311 206.798 128.952 206.466 128.723 206.229C128.489 205.999 128.376 205.873 128.376 205.873C128.376 205.873 128.509 205.978 128.752 206.199C128.99 206.424 129.357 206.745 129.856 207.143C130.852 207.938 132.405 209.039 134.631 210.002C136.848 210.947 139.769 211.754 143.21 211.687C144.918 211.645 146.766 211.397 148.564 210.666C149.462 210.307 150.332 209.803 151.111 209.15C151.884 208.489 152.562 207.667 152.964 206.678C153.369 205.696 153.55 204.582 153.418 203.477C153.298 202.375 152.827 201.275 151.984 200.495C151.142 199.713 149.948 199.333 148.756 199.392C147.563 199.445 146.359 199.888 145.385 200.657C144.413 201.431 143.684 202.531 143.232 203.744C142.779 204.961 142.588 206.297 142.616 207.64C142.685 210.332 143.607 213.074 145.251 215.397C146.883 217.723 149.193 219.672 151.929 220.836C154.67 221.986 157.773 222.418 160.847 222.073C163.901 221.716 167.022 220.721 169.576 218.813C170.831 217.854 171.919 216.6 172.473 215.102C173.017 213.614 173.045 211.886 172.393 210.42C172.071 209.689 171.554 209.057 170.922 208.592C170.281 208.133 169.515 207.869 168.736 207.769C167.172 207.593 165.535 208.067 164.338 209.063C163.124 210.06 162.357 211.518 161.998 213.027C161.645 214.549 161.678 216.137 162.046 217.635C162.772 220.65 164.52 223.268 166.365 225.601C168.239 227.922 170.498 229.891 173.086 231.071C175.661 232.239 178.561 232.584 181.148 231.885C183.746 231.221 185.867 229.33 186.901 227.043C187.422 225.906 187.67 224.656 187.565 223.454C187.487 222.247 186.998 221.123 186.311 220.189C184.921 218.344 182.627 217.232 180.525 217.615C179.488 217.8 178.522 218.275 177.777 218.96C177.023 219.638 176.448 220.468 176.022 221.334C175.175 223.078 174.876 224.949 174.968 226.655C175.142 230.106 176.483 232.904 177.908 234.84C179.348 236.796 180.858 237.98 181.925 238.669C182.463 239.012 182.885 239.257 183.18 239.4C183.469 239.553 183.614 239.642 183.614 239.642Z" fill="#FAFAF9"/>
<path d="M202.205 180.252C202.2 180.256 202.148 180.198 202.052 180.082C201.943 179.944 201.805 179.772 201.633 179.555C201.277 179.082 200.803 178.344 200.311 177.327C199.841 176.303 199.389 174.983 199.146 173.394C198.906 171.81 198.872 169.945 199.316 167.964C199.75 165.994 200.6 163.866 202.233 162.074C202.665 161.653 203.177 161.268 203.798 161.069C204.415 160.873 205.14 160.92 205.728 161.255C206.318 161.58 206.782 162.11 207.07 162.727C207.359 163.346 207.474 164.033 207.489 164.712C207.498 167.419 206.52 170.236 204.686 172.522C203.77 173.664 202.64 174.672 201.334 175.44C200.028 176.197 198.528 176.728 196.95 176.748C195.372 176.779 193.82 176.169 192.668 175.167C191.5 174.174 190.659 172.868 190.166 171.479C189.671 170.089 189.492 168.637 189.492 167.234C189.515 165.832 189.595 164.452 189.999 163.145C190.206 162.498 190.484 161.872 190.905 161.339C191.31 160.801 191.906 160.378 192.569 160.245C193.232 160.098 193.925 160.26 194.474 160.587C195.026 160.919 195.467 161.379 195.804 161.887C196.148 162.393 196.369 162.959 196.524 163.518C196.687 164.079 196.759 164.652 196.773 165.21C196.809 166.332 196.585 167.396 196.249 168.355C195.565 170.282 194.379 171.759 193.208 172.841C192.032 173.934 190.872 174.687 189.919 175.276C188.959 175.857 188.19 176.264 187.667 176.536C187.422 176.661 187.225 176.76 187.069 176.838C186.932 176.904 186.861 176.934 186.858 176.929C186.854 176.923 186.919 176.879 187.049 176.801C187.199 176.713 187.389 176.602 187.628 176.463C188.137 176.167 188.891 175.737 189.834 175.14C190.77 174.533 191.907 173.765 193.051 172.673C194.19 171.589 195.326 170.137 195.974 168.258C196.292 167.324 196.498 166.294 196.456 165.22C196.437 164.686 196.365 164.141 196.205 163.609C196.053 163.075 195.844 162.547 195.52 162.079C195.205 161.607 194.791 161.187 194.297 160.893C193.802 160.604 193.213 160.474 192.643 160.601C191.473 160.843 190.726 162.048 190.362 163.259C189.983 164.494 189.903 165.864 189.886 167.232C189.889 168.604 190.068 170.009 190.547 171.342C191.02 172.669 191.827 173.915 192.932 174.851C194.026 175.799 195.462 176.361 196.946 176.334C198.43 176.316 199.87 175.812 201.127 175.085C202.387 174.345 203.483 173.372 204.371 172.267C206.153 170.06 207.109 167.319 207.109 164.72C207.098 164.077 206.99 163.442 206.733 162.885C206.479 162.332 206.063 161.857 205.554 161.574C205.047 161.285 204.443 161.242 203.902 161.408C203.358 161.577 202.88 161.924 202.471 162.319C200.91 164.01 200.035 166.109 199.6 168.027C199.147 169.965 199.16 171.797 199.374 173.36C199.591 174.929 200.015 176.238 200.457 177.26C200.92 178.276 201.369 179.021 201.701 179.507C201.859 179.732 201.985 179.912 202.085 180.055C202.17 180.18 202.211 180.247 202.205 180.252Z" fill="#FAFAF9"/>
<path d="M183.241 170.897C183.241 170.897 183.241 199.163 190.288 201.841C209.461 209.125 232.388 207.45 240.455 206.684C241.421 206.007 242.536 205.181 243.807 204.147L246.473 201.918C246.473 201.918 259.116 204.339 258.95 205.007C258.784 205.675 254.016 207.218 249.121 206.112C249.121 206.112 248.07 208.036 250.287 209.119C253.511 210.694 264.934 215.548 266.744 216.645C268.355 217.623 269.852 219.23 268.043 219.34C266.235 219.45 256.637 217.073 256.637 217.073C256.637 217.073 269.277 219.938 268.777 221.767C268.431 223.029 264.923 223.297 256.752 220.569C256.752 220.569 267.147 223.007 268.138 224.225C270.376 226.978 257.839 224.167 257.839 224.167C266.605 226.214 266.56 225.739 266.532 226.971C266.511 227.893 264.468 228.061 259.584 227.632C257.397 227.44 255.146 227.486 252.549 227.533C250.442 227.57 248.106 227.608 245.391 227.519C245.391 227.519 167.109 241.521 159.976 206.832C156.131 188.133 156.782 181.229 156.012 169.147L183.241 170.897Z" fill="#C0776A"/>
<path d="M252.535 223.058C252.478 223.278 255.142 224.018 258.484 224.71C261.825 225.403 264.562 225.782 264.598 225.558C264.633 225.333 261.97 224.593 258.648 223.905C255.328 223.217 252.591 222.838 252.535 223.058Z" fill="#B85549"/>
<path d="M252.963 219.595C252.904 219.814 255.698 220.762 259.202 221.713C262.708 222.665 265.597 223.258 265.655 223.038C265.715 222.82 262.921 221.872 259.416 220.92C255.912 219.969 253.022 219.376 252.963 219.595Z" fill="#B85549"/>
<path d="M253.427 216.004C253.365 216.222 255.993 217.164 259.298 218.107C262.602 219.052 265.331 219.639 265.392 219.421C265.454 219.203 262.826 218.262 259.521 217.317C256.217 216.374 253.489 215.785 253.427 216.004Z" fill="#B85549"/>
<path d="M168.8 143.24C163.67 142.718 158.648 145.177 155.647 149.386C152.981 153.124 150.54 159.131 151.745 168.047C154.094 185.44 156.012 191.237 156.012 191.237L187.848 186.174L183.493 157.002C183.493 157.002 179.652 144.341 168.8 143.24Z" fill="#F03D5F"/>
<path d="M156.012 191.237C156.012 191.237 154.094 185.44 151.745 168.047C151.528 166.445 151.429 164.937 151.429 163.519C151.425 157.045 153.46 152.452 155.647 149.386C158.382 145.551 162.791 143.171 167.434 143.171C167.887 143.171 168.343 143.193 168.8 143.24C179.651 144.341 183.493 157.002 183.493 157.002L187.848 186.174L184.296 186.74L157.362 191.022L156.012 191.237Z" fill="#FFCD00"/>
<path d="M249.018 202.422C249.015 202.438 248.778 202.407 248.332 202.334C247.89 202.267 247.227 202.133 246.399 202.007C246.02 201.993 245.58 202.221 245.164 202.502C244.74 202.786 244.3 203.132 243.854 203.532C242.955 204.327 241.993 205.308 240.994 206.432L240.964 206.466L240.92 206.479C238.758 207.152 236.166 207.561 233.339 207.638C230.509 207.73 227.452 207.511 224.283 207.265C216.978 206.746 210.344 206.34 205.578 205.675C203.195 205.357 201.276 205.026 199.961 204.746C199.301 204.618 198.795 204.484 198.451 204.404C198.107 204.319 197.928 204.267 197.931 204.254C197.934 204.239 198.119 204.263 198.468 204.322C198.857 204.39 199.362 204.478 199.99 204.587C201.312 204.819 203.232 205.105 205.614 205.384C210.377 205.974 216.998 206.332 224.314 206.852C227.485 207.099 230.523 207.324 233.327 207.249C236.13 207.188 238.687 206.807 240.828 206.173L240.754 206.219C241.78 205.095 242.76 204.127 243.686 203.339C244.147 202.942 244.601 202.598 245.046 202.317C245.486 202.041 245.938 201.799 246.42 201.829C247.271 201.984 247.908 202.145 248.351 202.242C248.791 202.344 249.021 202.406 249.018 202.422Z" fill="#B85549"/>
<path d="M185.662 169.897C185.665 169.904 185.581 169.926 185.417 169.964C185.23 170.005 184.987 170.056 184.683 170.122C184.357 170.17 183.949 170.207 183.468 170.245C182.986 170.24 182.426 170.262 181.802 170.176C180.556 170.039 179.037 169.66 177.445 168.835C176.656 168.415 175.84 167.899 175.075 167.227C174.291 166.578 173.563 165.768 172.928 164.831C172.284 163.898 171.759 162.817 171.446 161.603C171.309 160.994 171.238 160.35 171.302 159.693C171.363 159.042 171.579 158.358 172.046 157.822C172.514 157.294 173.221 156.97 173.941 156.957C174.661 156.934 175.369 157.143 176.012 157.469C177.293 158.151 178.345 159.277 179.024 160.632C179.703 161.985 180.038 163.555 179.933 165.139C179.84 166.722 179.272 168.322 178.259 169.625C176.271 172.258 172.768 173.794 169.301 173.416C165.818 173.029 162.788 170.938 160.922 168.269C159.995 166.929 159.298 165.412 159.157 163.811C159.085 163.016 159.165 162.208 159.429 161.459C159.702 160.717 160.141 160.05 160.708 159.527C161.274 159.008 161.975 158.621 162.73 158.511C163.484 158.379 164.254 158.543 164.905 158.872C166.225 159.534 167.069 160.832 167.374 162.143C167.699 163.463 167.605 164.788 167.346 165.998C167.072 167.212 166.594 168.319 165.99 169.279C164.783 171.21 163.094 172.526 161.449 173.233C159.797 173.95 158.222 174.114 156.971 174.067C155.711 174.028 154.759 173.758 154.136 173.551C153.509 173.339 153.209 173.161 153.209 173.161C153.219 173.138 153.532 173.287 154.161 173.471C154.787 173.65 155.734 173.892 156.975 173.905C158.207 173.928 159.751 173.742 161.356 173.021C162.954 172.312 164.583 171.012 165.743 169.125C166.323 168.185 166.778 167.106 167.035 165.931C167.279 164.756 167.358 163.474 167.042 162.226C166.747 160.988 165.955 159.8 164.742 159.197C164.148 158.9 163.458 158.758 162.789 158.878C162.117 158.979 161.483 159.33 160.966 159.807C160.447 160.289 160.043 160.908 159.793 161.591C159.555 162.274 159.478 163.029 159.549 163.776C159.683 165.28 160.352 166.741 161.253 168.036C163.062 170.617 166.002 172.636 169.345 173.004C172.662 173.37 176.04 171.889 177.937 169.378C179.917 166.881 179.976 163.369 178.685 160.804C178.357 160.161 177.954 159.567 177.476 159.052C176.984 158.556 176.448 158.102 175.848 157.794C175.249 157.485 174.592 157.294 173.953 157.312C173.312 157.32 172.711 157.597 172.301 158.051C171.895 158.511 171.691 159.12 171.631 159.727C171.566 160.336 171.629 160.95 171.756 161.531C172.047 162.688 172.551 163.758 173.17 164.668C173.782 165.586 174.485 166.385 175.246 167.028C175.988 167.693 176.783 168.207 177.552 168.63C179.107 169.46 180.595 169.857 181.821 170.016C184.299 170.338 185.659 169.803 185.662 169.897Z" fill="#FAFAF9"/>
<path d="M168.918 81.7161C167.773 78.4695 164.701 75.9949 161.295 75.5768C157.891 75.1586 154.315 76.8169 152.425 79.6914C151.219 81.5253 150.7 83.7121 149.945 85.775C149.189 87.8371 148.069 89.9238 146.144 90.9707C143.892 92.1949 140.935 91.7728 138.887 93.3174C136.612 95.0328 136.552 98.8025 138.462 100.919C140.372 103.036 143.694 103.493 146.336 102.435C145.784 104.138 145.225 105.881 145.256 107.672C145.287 109.463 146.02 111.345 147.537 112.288C149.071 113.242 151.114 113.042 152.71 112.192C154.304 111.343 155.529 109.939 156.624 108.497C156.943 109.742 157.27 111.009 157.933 112.111C158.595 113.211 159.653 114.145 160.919 114.341C162.473 114.581 164.033 113.65 164.933 112.356C165.833 111.063 166.182 109.466 166.38 107.9C166.871 104.029 166.553 100.074 165.634 96.2817C165.045 93.8524 164.205 91.3666 164.669 88.9102C165.133 86.4539 167.546 84.1446 169.925 84.8823" fill="#17282F"/>
<path d="M137.702 98.477C137.694 98.4977 137.833 98.5637 138.105 98.6702C138.378 98.7743 138.79 98.9023 139.332 99.0255C140.412 99.2568 142.05 99.4436 144.027 99.0827C145.989 98.7314 148.291 97.7536 150.218 95.8919C151.179 94.9689 152.05 93.8465 152.71 92.5468C153.388 91.2502 153.776 89.7772 154.099 88.3081C154.426 86.8359 154.716 85.405 155.259 84.1379C155.788 82.8668 156.603 81.8032 157.623 81.0742C159.667 79.5845 162.136 79.3651 163.968 79.8436C165.836 80.3111 167.141 81.2801 167.941 81.9979C168.75 82.7269 169.097 83.2364 169.146 83.1991C169.164 83.1863 169.089 83.0512 168.93 82.8048C168.764 82.5647 168.506 82.2149 168.116 81.8151C167.348 81.0225 166.041 79.9526 164.083 79.3985C162.16 78.8349 159.506 79.0034 157.275 80.5877C156.16 81.3588 155.242 82.5369 154.676 83.8859C154.091 85.2317 153.792 86.7032 153.466 88.1658C153.144 89.6309 152.777 91.0276 152.144 92.2574C151.527 93.4935 150.707 94.5699 149.803 95.461C147.988 97.2592 145.819 98.2346 143.938 98.632C142.044 99.0359 140.449 98.9277 139.377 98.7759C138.3 98.6098 137.718 98.4238 137.702 98.477Z" fill="#33535F"/>
<path d="M158.581 113.16C158.595 113.177 158.704 113.105 158.9 112.95C159.1 112.801 159.365 112.538 159.661 112.164C160.256 111.42 160.889 110.119 161.066 108.407C161.264 106.708 161.055 104.637 160.397 102.498C159.791 100.353 158.865 98.0835 158.514 95.6033C158.13 93.1263 158.695 90.7161 159.808 88.8718C160.9 87.0069 162.48 85.7524 163.945 85.0457C165.415 84.32 166.751 84.0894 167.663 83.9996C168.583 83.9193 169.1 83.9551 169.105 83.901C169.11 83.8661 168.598 83.7437 167.65 83.7468C166.711 83.7611 165.314 83.9249 163.75 84.6284C162.196 85.3113 160.483 86.6023 159.297 88.561C158.088 90.4847 157.465 93.0882 157.872 95.6916C158.244 98.2902 159.2 100.567 159.825 102.669C160.5 104.755 160.74 106.725 160.61 108.363C160.497 110.006 159.964 111.258 159.456 112.016C158.946 112.78 158.537 113.112 158.581 113.16Z" fill="#33535F"/>
<path d="M211.46 98.097C217.666 83.6872 209.153 74.9087 203.61 71.7575C200.309 69.8807 196.387 69.4888 192.595 69.3974C188.851 69.3075 185.067 69.4768 181.443 70.4244C177.818 71.3712 174.341 73.1399 171.786 75.8896C167.248 80.7689 166.21 87.9942 166.636 94.6557C167.135 102.501 169.38 110.241 173.247 117.075C173.745 117.954 174.308 118.856 175.189 119.343C176.071 119.829 177.358 119.721 177.874 118.854" fill="#17282F"/>
<path d="M200.809 134.04L200.583 126.458C200.583 126.458 209.412 124.987 211.242 113.422C212.151 107.67 211.863 98.2402 211.38 90.5325C210.944 83.5943 204.849 78.416 197.963 79.1474L177.977 81.2699C175.886 81.4916 174.311 83.2834 174.352 85.3948L177.009 135.04C177.349 141.386 182.573 146.355 188.903 146.355C195.621 146.355 201.01 140.781 200.809 134.04Z" fill="#C0776A"/>
<path d="M209.382 97.1054C209.411 97.8892 208.772 98.5585 207.958 98.6022C207.145 98.646 206.463 98.0482 206.435 97.2652C206.408 96.4814 207.045 95.8112 207.859 95.7675C208.672 95.7238 209.355 96.3224 209.382 97.1054Z" fill="#17282F"/>
<path d="M209.342 95.4377C209.159 95.6309 208.04 94.7993 206.45 94.8033C204.861 94.785 203.695 95.6062 203.522 95.4106C203.438 95.324 203.625 94.975 204.133 94.6038C204.633 94.2341 205.485 93.874 206.476 93.8788C207.467 93.8843 208.299 94.25 208.778 94.6244C209.266 95.0004 209.432 95.351 209.342 95.4377Z" fill="#17282F"/>
<path d="M193.45 97.529C193.479 98.312 192.84 98.9814 192.027 99.0251C191.213 99.0688 190.531 98.471 190.503 97.688C190.476 96.905 191.114 96.2349 191.927 96.1903C192.741 96.1466 193.423 96.7452 193.45 97.529Z" fill="#17282F"/>
<path d="M193.716 95.7363C193.532 95.9303 192.412 95.0987 190.823 95.1027C189.236 95.0836 188.068 95.9056 187.896 95.71C187.811 95.6234 187.996 95.2744 188.505 94.9024C189.006 94.5328 189.859 94.1734 190.848 94.1774C191.839 94.183 192.672 94.5494 193.151 94.9238C193.639 95.2999 193.805 95.6496 193.716 95.7363Z" fill="#17282F"/>
<path d="M199.485 107.572C199.478 107.481 200.466 107.31 202.067 107.104C202.473 107.062 202.857 106.981 202.926 106.703C203.021 106.408 202.851 105.969 202.655 105.495C202.273 104.508 201.874 103.475 201.454 102.391C199.787 97.973 198.58 94.3401 198.758 94.2741C198.936 94.2082 200.431 97.7361 202.099 102.154C202.5 103.244 202.884 104.282 203.249 105.277C203.402 105.74 203.667 106.265 203.459 106.876C203.35 107.181 203.052 107.402 202.792 107.472C202.532 107.552 202.303 107.556 202.102 107.568C200.491 107.655 199.491 107.662 199.485 107.572Z" fill="#17282F"/>
<path d="M200.583 126.458C200.583 126.458 192.834 126.96 185.155 122.326C185.155 122.326 188.898 130.271 200.428 129.189L200.583 126.458Z" fill="#B85549"/>
<path d="M198.813 111.418C198.241 110.659 197.239 110.242 196.245 110.35C195.555 110.424 194.857 110.759 194.439 111.322C194.02 111.887 193.932 112.687 194.313 113.225C194.742 113.83 195.638 113.97 196.397 113.754C197.156 113.537 197.809 113.035 198.429 112.536C198.6 112.398 198.775 112.254 198.883 112.065C198.989 111.875 199.012 111.627 198.88 111.47" fill="#B85549"/>
<path d="M194.806 108.676C195.065 108.661 195.068 110.393 196.546 111.622C198.019 112.855 199.859 112.661 199.873 112.903C199.897 113.012 199.463 113.24 198.687 113.261C197.925 113.287 196.813 113.041 195.909 112.289C195.008 111.535 194.621 110.529 194.562 109.819C194.496 109.095 194.688 108.665 194.806 108.676Z" fill="#17282F"/>
<path d="M194.431 92.9411C194.274 93.3751 192.686 93.1692 190.822 93.395C188.952 93.5834 187.448 94.1319 187.201 93.7424C187.09 93.5563 187.352 93.1478 187.96 92.728C188.563 92.3083 189.525 91.9092 190.644 91.7844C191.764 91.6612 192.789 91.8401 193.469 92.1175C194.154 92.3942 194.498 92.7352 194.431 92.9411Z" fill="#17282F"/>
<path d="M208.757 90.8185C208.478 91.181 207.383 90.805 206.066 90.7875C204.75 90.7231 203.634 91.0307 203.377 90.6516C203.264 90.4671 203.44 90.1046 203.928 89.7612C204.408 89.4194 205.211 89.1396 206.116 89.1674C207.021 89.196 207.805 89.5243 208.262 89.8964C208.728 90.2684 208.881 90.642 208.757 90.8185Z" fill="#17282F"/>
<path d="M211.38 90.5328C209.365 80.67 206.626 84.5732 203.535 79.8671C199.054 84.4229 188.733 89.6743 182.439 90.7053C181.796 90.811 181.119 90.908 180.595 91.2968C179.625 92.0201 179.549 93.4232 179.553 94.6363C179.564 98.0617 179.499 101.519 178.714 104.852C177.929 108.185 176.364 111.421 173.792 113.672C169.994 105.633 169.614 96.281 171.314 87.5494C172.008 83.9825 173.185 80.2455 176.015 77.9799C178.041 76.3575 180.659 75.7064 183.208 75.2366C189.503 74.0768 196.163 73.797 202.156 76.053C208.149 78.3091 212.803 81.0866 213.606 87.462" fill="#17282F"/>
<path d="M167.845 83.6062C167.826 83.646 168.282 83.8948 169.134 84.3121C169.553 84.5411 170.098 84.735 170.734 84.9568C171.059 85.0705 171.398 85.1889 171.754 85.313C172.128 85.4083 172.519 85.5061 172.926 85.6087C174.566 86.0483 176.578 86.3011 178.815 86.4203C181.057 86.5046 183.525 86.348 186.08 85.9465C188.637 85.5276 191.008 84.8098 193.107 84.0228C194.133 83.5681 195.134 83.1929 196 82.6905C196.438 82.4567 196.862 82.2294 197.273 82.0092C197.659 81.758 198.032 81.5155 198.391 81.281C199.118 80.8398 199.71 80.347 200.231 79.9193C200.486 79.7118 200.728 79.5147 200.958 79.3263C201.153 79.1283 201.339 78.9415 201.514 78.7643C202.175 78.083 202.522 77.6951 202.489 77.6641C202.389 77.5591 200.985 79.1331 198.144 80.8931C197.785 81.1117 197.412 81.3383 197.026 81.5728C196.616 81.7787 196.193 81.9909 195.758 82.2087C194.898 82.6825 193.906 83.0307 192.893 83.4631C190.819 84.2048 188.487 84.8932 185.974 85.305C183.462 85.6985 181.039 85.8718 178.834 85.8209C176.635 85.7359 174.652 85.5355 173.027 85.1603C169.758 84.4751 167.902 83.479 167.845 83.6062Z" fill="#33535F"/>
<path d="M171.108 75.8137C171.081 75.8495 171.433 76.1357 172.101 76.6285C172.425 76.8932 172.863 77.146 173.383 77.4259C173.647 77.5713 173.923 77.724 174.21 77.8821C174.522 78.0149 174.847 78.1532 175.182 78.2963C177.907 79.4911 181.991 80.2972 186.5 80.3226C191.014 80.3464 195.063 79.7034 197.931 79.0428C199.368 78.72 200.514 78.3901 201.296 78.131C202.077 77.871 202.503 77.7065 202.489 77.6643C202.459 77.5618 200.711 78.0523 197.838 78.592C194.969 79.1334 190.955 79.6962 186.505 79.6723C182.059 79.6461 178.057 78.9275 175.351 77.8686C172.625 76.8503 171.186 75.6985 171.108 75.8137Z" fill="#33535F"/>
<path d="M206.512 73.3052C206.508 73.2272 206.114 73.1493 205.494 73.3059C204.879 73.457 204.071 73.9022 203.445 74.6589C202.82 75.4181 202.537 76.2989 202.503 76.9333C202.466 77.574 202.617 77.9484 202.693 77.9373C202.876 77.9325 202.807 76.4078 203.944 75.0739C205.036 73.7034 206.542 73.4856 206.512 73.3052Z" fill="#33535F"/>
<path d="M146.996 85.7621C147.006 85.7566 146.92 85.5841 146.655 85.344C146.396 85.1016 145.918 84.8098 145.233 84.7216C144.56 84.6302 143.67 84.7256 142.831 85.2637C141.98 85.7661 141.299 86.9116 141.433 88.1907C141.551 89.4427 142.316 90.7631 143.642 91.4754C144.987 92.1908 146.784 91.9659 148.125 91.0032C148.801 90.5278 149.39 89.8775 149.774 89.0874C150.16 88.3004 150.329 87.4196 150.385 86.5468C150.505 84.7979 150.203 83.0292 150.52 81.3176C151.167 77.8541 153.852 75.1895 156.673 74.1799C159.557 73.1218 162.463 73.9056 164.383 75.1354C166.35 76.3763 167.464 77.9956 168.031 79.1546C168.601 80.3319 168.72 81.0673 168.788 81.0506C168.81 81.0458 168.787 80.8637 168.723 80.5179C168.666 80.1705 168.522 79.6658 168.26 79.0489C167.747 77.8247 166.656 76.0973 164.631 74.7483C163.625 74.0829 162.392 73.528 160.985 73.2649C159.583 72.9803 158.001 73.1043 156.474 73.6147C153.455 74.6648 150.588 77.4638 149.883 81.2C149.546 83.0689 149.865 84.8551 149.751 86.5046C149.703 87.3282 149.55 88.1255 149.217 88.8163C148.89 89.5047 148.375 90.0858 147.78 90.5135C146.596 91.3824 145.032 91.5827 143.886 90.9944C142.733 90.4054 142.015 89.236 141.888 88.1446C141.753 87.0285 142.29 86.0515 143.033 85.5666C143.765 85.0547 144.582 84.9243 145.206 84.9736C146.509 85.0857 146.949 85.848 146.996 85.7621Z" fill="#17282F"/>
<path d="M177.25 90.9757C177.252 91.0202 177.678 91.0544 178.451 91.0719C179.223 91.0894 180.341 91.091 181.723 91.0409C184.472 90.9265 188.356 90.6506 192.382 89.1919C196.413 87.7236 199.503 85.1147 201.084 82.7974C201.887 81.6456 202.378 80.6105 202.631 79.8712C202.888 79.1328 202.964 78.7051 202.929 78.6955C202.803 78.6431 202.378 80.3522 200.715 82.5247C199.091 84.6989 196.069 87.1545 192.159 88.5806C188.243 90.0011 184.425 90.3517 181.696 90.5814C178.955 90.7905 177.248 90.8764 177.25 90.9757Z" fill="#17282F"/>
<path d="M160.902 119.229C160.873 119.234 160.941 119.694 161.447 120.325C161.942 120.932 162.961 121.697 164.431 121.787C165.877 121.878 167.617 121.329 169.047 120.042C169.745 119.394 170.368 118.48 170.457 117.359C170.538 116.293 170.099 115.018 168.958 114.455C167.826 113.951 166.404 114.398 165.904 115.541C165.669 116.111 165.766 116.74 166.023 117.221C166.278 117.708 166.685 118.088 167.154 118.312C168.097 118.751 169.096 118.635 169.894 118.357C170.71 118.077 171.374 117.603 171.872 117.083C172.885 116.038 173.241 114.863 173.335 114.086C173.42 113.292 173.295 112.86 173.265 112.867C173.207 112.87 173.242 113.303 173.086 114.044C172.923 114.77 172.519 115.838 171.55 116.755C171.074 117.212 170.458 117.618 169.727 117.844C169.008 118.076 168.141 118.133 167.415 117.773C166.718 117.445 166.174 116.524 166.491 115.782C166.782 115.048 167.903 114.669 168.683 115.044C169.492 115.428 169.889 116.436 169.823 117.316C169.766 118.208 169.256 119.015 168.637 119.606C167.366 120.795 165.755 121.36 164.451 121.328C163.125 121.305 162.151 120.671 161.633 120.154C161.105 119.62 160.956 119.204 160.902 119.229Z" fill="#17282F"/>
<path d="M226.966 259.883C226.966 259.998 198.221 260.091 162.771 260.091C127.308 260.091 98.5699 259.998 98.5699 259.883C98.5699 259.769 127.308 259.677 162.771 259.677C198.221 259.677 226.966 259.769 226.966 259.883Z" fill="#33535F"/>
<path d="M58.8089 213.734C61.5679 214.089 64.0269 215.839 65.6597 218.099C67.2928 220.36 68.17 223.093 68.6383 225.846C69.5445 231.172 68.128 237.227 66.1747 242.261C60.7556 239.729 57.8528 233.408 56.5807 230.108C54.5702 224.892 54.0914 214.242 58.8089 213.734Z" fill="#FFCD00"/>
<path d="M73.6581 249.308C72.1246 246.595 72.4101 243.046 74.0633 240.406C75.7162 237.764 78.586 236.015 81.628 235.378C83.0342 235.084 84.6377 235.054 85.7541 235.962C86.797 236.812 87.143 238.319 86.8761 239.64C86.6101 240.962 85.823 242.121 84.9291 243.127C81.8631 246.579 78.2643 249.353 73.6581 249.308Z" fill="#FFCD00"/>
<path d="M72.6744 266.733C72.6468 266.735 72.5976 266.342 72.5231 265.63C72.4442 264.845 72.3421 263.832 72.2196 262.615C72.0072 260.083 71.6314 256.476 72.5234 252.61C73.3929 248.759 75.2456 245.57 77.0494 243.731C77.9402 242.799 78.7685 242.156 79.3745 241.771C79.6691 241.566 79.9233 241.447 80.0856 241.352C80.2519 241.263 80.3421 241.222 80.3485 241.234C80.4039 241.31 78.9548 242.03 77.252 243.919C75.5329 245.773 73.7594 248.912 72.9035 252.698C72.0279 256.485 72.3511 260.054 72.4949 262.593C72.579 263.868 72.6471 264.903 72.6746 265.619C72.7025 266.334 72.7007 266.732 72.6744 266.733Z" fill="#17282F"/>
<path d="M59.8869 221.813C59.8999 221.809 59.9636 221.963 60.0734 222.259C60.1928 222.597 60.3459 223.03 60.5355 223.565C60.9302 224.702 61.4799 226.354 62.1424 228.4C63.468 232.494 65.2206 238.174 67.0149 244.491C68.8079 250.809 70.3021 256.564 71.325 260.743C71.8372 262.833 72.2375 264.528 72.4989 265.702C72.6191 266.259 72.7163 266.707 72.7921 267.057C72.8552 267.367 72.8818 267.532 72.8685 267.535C72.8555 267.538 72.8031 267.38 72.716 267.076C72.6216 266.73 72.501 266.287 72.3513 265.738C72.0333 264.528 71.5951 262.857 71.0581 260.812C69.9668 256.652 68.4314 250.912 66.6399 244.597C64.8466 238.286 63.1374 232.597 61.8794 228.485C61.2618 226.462 60.757 224.81 60.3908 223.613C60.2299 223.068 60.1 222.628 59.9983 222.284C59.9128 221.979 59.8742 221.816 59.8869 221.813Z" fill="#17282F"/>
<path d="M67.0809 254.625C64.2959 248.67 58.4798 244.249 52.0178 243.171C50.3722 242.896 48.3534 242.991 47.4769 244.416C46.5987 245.843 47.4252 247.706 48.441 249.038C52.6664 254.581 60.4463 257.099 67.101 255.078" fill="#FFCD00"/>
<path d="M54.1302 247.857C54.1345 247.831 54.5014 247.881 55.1636 247.993C55.4954 248.046 55.9012 248.114 56.3609 248.246C56.8199 248.377 57.3581 248.478 57.921 248.693C58.4898 248.891 59.1186 249.094 59.761 249.396C60.4202 249.66 61.0895 250.015 61.792 250.394C63.1755 251.187 64.628 252.191 65.9834 253.445C67.3273 254.714 68.434 256.093 69.3139 257.428C69.7337 258.11 70.1348 258.755 70.4342 259.402C70.7736 260.028 71.0111 260.647 71.2369 261.207C71.4825 261.76 71.6081 262.295 71.7596 262.749C71.9137 263.204 71.9987 263.609 72.0655 263.939C72.2047 264.6 72.269 264.965 72.2427 264.97C72.1571 264.992 71.8911 263.518 70.9811 261.311C70.742 260.764 70.4939 260.161 70.1472 259.55C69.8398 258.92 69.4345 258.291 69.0139 257.627C68.1321 256.326 67.0378 254.978 65.7183 253.733C64.3867 252.5 62.9661 251.506 61.6144 250.708C60.9278 250.327 60.2745 249.965 59.6302 249.692C59.0023 249.382 58.3875 249.168 57.8313 248.956C55.5873 248.159 54.1131 247.942 54.1302 247.857Z" fill="#17282F"/>
<path d="M251.365 7.71777C239.352 6.90693 227.104 12.795 220.203 22.6992C213.302 32.6033 211.993 46.1729 216.87 57.2225C220.95 66.4661 228.856 73.6953 232.362 83.1725C234.767 89.6711 234.944 96.8383 237.392 103.322C242.419 116.642 257.769 125.119 271.667 122.251C280.014 120.527 287.519 115.291 296.023 114.759C299.099 114.567 302.318 114.968 305.511 115.37C311.793 116.159 317.975 116.949 322.766 113.218C327.816 109.285 328.677 101.734 326.846 95.5863C325.016 89.4382 321.072 84.194 317.834 78.6612C314.597 73.1293 311.961 66.7332 313.161 60.4309C314.248 54.7185 318.28 50.088 320.818 44.8597C325.571 35.0652 324.705 22.7548 318.63 13.7283C312.554 4.70096 301.501 -0.698257 290.677 0.0736237C283.421 0.591133 276.62 3.62461 269.641 5.67873C262.661 7.73286 259.177 7.96181 251.365 7.71777Z" fill="#F5F5F5"/>
<path d="M268.768 31.0487C268.768 31.0487 255.344 30.9191 250.723 42.6222C246.102 54.3261 251.397 59.9845 253.465 63.4281C255.534 66.871 261.081 74.3601 261.127 81.416L279.162 81.3023C279.162 81.3023 280.09 72.6455 285.481 63.6332C290.872 54.6202 290.23 48.0469 288.759 44.1215C287.286 40.1961 282.492 30.47 268.768 31.0487Z" fill="#FFCD00"/>
<path d="M272.861 80.7973C272.861 80.7973 272.839 80.7027 272.808 80.5159C272.778 80.318 272.736 80.0413 272.681 79.6852C272.576 78.9419 272.423 77.8664 272.226 76.4864C271.854 73.7057 271.298 69.6793 270.947 64.6688C270.865 63.4168 270.79 62.1028 270.754 60.7323C270.723 59.3626 270.678 57.9357 270.771 56.4547C270.869 54.9809 271.123 53.43 271.819 51.9879C272.514 50.5698 273.663 49.2422 275.25 48.6039C276.825 47.9409 278.816 48.3137 280.094 49.5785C280.722 50.2112 281.14 51.1103 281.11 52.038C281.097 52.9625 280.734 53.86 280.174 54.593C279.62 55.3378 278.848 55.9078 278.012 56.31C277.175 56.721 276.27 56.9746 275.356 57.167C273.525 57.5366 271.637 57.7314 269.724 57.7711C267.81 57.795 265.918 57.7417 264.066 57.4404C263.143 57.2799 262.235 57.0302 261.391 56.6367C260.546 56.2456 259.777 55.6947 259.16 55.0111C258.544 54.3298 258.077 53.5023 257.89 52.6056C257.691 51.7073 257.838 50.759 258.233 49.9585C258.625 49.158 259.283 48.4735 260.115 48.1547C260.946 47.8264 261.885 47.9298 262.65 48.2978C263.423 48.6643 264.06 49.251 264.528 49.9322C264.996 50.6198 265.272 51.3965 265.452 52.17C265.802 53.7297 265.779 55.271 265.859 56.7393C265.984 59.6861 266.1 62.4311 266.206 64.9383C266.409 69.9432 266.574 73.9966 266.688 76.8115C266.738 78.2043 266.778 79.2901 266.805 80.0398C266.815 80.4007 266.823 80.6797 266.829 80.88C266.833 81.0692 266.827 81.167 266.827 81.167C266.827 81.167 266.814 81.07 266.801 80.8808C266.788 80.6813 266.772 80.4022 266.749 80.0429C266.71 79.2933 266.654 78.2082 266.581 76.8163C266.445 74.0022 266.251 69.9504 266.011 64.947C265.894 62.4398 265.767 59.6957 265.63 56.7496C265.545 55.279 265.561 53.7408 265.216 52.2256C265.038 51.4736 264.766 50.7232 264.322 50.0745C263.877 49.4274 263.266 48.871 262.542 48.53C261.824 48.1873 260.964 48.0983 260.207 48.3988C259.45 48.6897 258.837 49.3241 258.471 50.0753C258.101 50.8289 257.966 51.7113 258.153 52.55C258.329 53.3918 258.771 54.1764 259.362 54.8283C260.547 56.1598 262.31 56.8673 264.113 57.1678C265.93 57.4627 267.822 57.5175 269.718 57.4929C271.616 57.4539 273.489 57.26 275.3 56.8967C276.201 56.7075 277.084 56.4587 277.894 56.0636C278.702 55.6733 279.431 55.1319 279.958 54.4276C280.489 53.7328 280.83 52.8886 280.842 52.0349C280.87 51.1771 280.49 50.3599 279.906 49.7661C278.711 48.5808 276.831 48.2167 275.344 48.8424C273.834 49.4441 272.715 50.72 272.036 52.096C271.358 53.4912 271.101 55.0127 271 56.4706C270.903 57.9341 270.942 59.3594 270.968 60.7267C270.998 62.094 271.067 63.4049 271.142 64.6561C271.468 69.6594 271.994 73.6874 272.333 76.4721C272.507 77.8545 272.643 78.9332 272.736 79.6773C272.779 80.0358 272.812 80.3132 272.836 80.512C272.858 80.7004 272.861 80.7973 272.861 80.7973Z" fill="#17282F"/>
<path d="M261.122 81.155L279.219 80.872L279.412 92.3454L274.16 98.6445L267.218 98.9434L261.342 91.8946L261.122 81.155Z" fill="#DADBD8"/>
<path d="M274.16 98.6447C273.225 97.6964 271.859 97.0962 270.533 97.1709C269.206 97.2456 267.923 97.915 267.1 98.9619L274.16 98.6447Z" fill="#33535F"/>
<path d="M278.929 91.4063C278.919 91.4254 278.689 91.3149 278.274 91.121C277.859 90.927 277.251 90.6615 276.481 90.3888C274.947 89.8372 272.717 89.3165 270.225 89.3689C267.732 89.4198 265.525 90.0343 264.015 90.6488C263.258 90.954 262.661 91.2442 262.254 91.4556C261.847 91.6663 261.622 91.7863 261.611 91.7688C261.603 91.7537 261.808 91.6027 262.202 91.361C262.595 91.1194 263.183 90.799 263.94 90.4675C265.446 89.799 267.684 89.1432 270.219 89.0915C272.753 89.0367 275.015 89.5995 276.548 90.2036C277.318 90.5041 277.92 90.799 278.323 91.024C278.726 91.249 278.937 91.392 278.929 91.4063Z" fill="#17282F"/>
<path d="M278.954 88.6209C278.943 88.6399 278.714 88.5287 278.298 88.3355C277.883 88.1407 277.275 87.876 276.505 87.6026C274.971 87.0517 272.741 86.5302 270.249 86.5835C267.756 86.6343 265.549 87.2488 264.04 87.8625C263.282 88.1678 262.685 88.4579 262.279 88.6701C261.872 88.8808 261.647 89.0008 261.636 88.9825C261.626 88.9682 261.832 88.8164 262.226 88.5748C262.619 88.3331 263.208 88.0135 263.965 87.6813C265.471 87.0135 267.708 86.3569 270.243 86.3052C272.778 86.2512 275.04 86.8132 276.573 87.4173C277.343 87.7178 277.943 88.0127 278.346 88.2385C278.75 88.4627 278.962 88.6066 278.954 88.6209Z" fill="#17282F"/>
<path d="M278.815 85.9695C278.805 85.9886 278.575 85.8773 278.16 85.6841C277.744 85.4901 277.136 85.2246 276.367 84.9511C274.834 84.4002 272.602 83.8795 270.111 83.9328C267.618 83.9837 265.41 84.5974 263.901 85.2119C263.143 85.5171 262.547 85.8073 262.14 86.0188C261.733 86.2294 261.509 86.3495 261.497 86.3312C261.488 86.3169 261.694 86.165 262.088 85.9242C262.481 85.6825 263.069 85.3621 263.826 85.0298C265.333 84.3621 267.57 83.7055 270.105 83.6546C272.639 83.5997 274.902 84.1618 276.434 84.7667C277.204 85.0664 277.806 85.3621 278.208 85.5871C278.612 85.8121 278.824 85.9552 278.815 85.9695Z" fill="#17282F"/>
<path d="M258.473 63.626C258.153 63.626 257.712 63.494 257.173 63.2142C256.274 62.7508 255.139 61.8278 254.026 60.4073C252.911 58.9923 251.873 57.0479 251.251 54.6917C250.625 52.3442 250.465 49.5683 251.065 46.7431C251.696 43.9234 252.999 41.4679 254.544 39.5982C256.091 37.7173 257.844 36.3874 259.445 35.5694C261.047 34.7459 262.462 34.3842 263.472 34.3405C263.565 34.3357 263.655 34.3341 263.74 34.3341C264.588 34.3341 265.084 34.54 265.183 34.8651C265.415 35.6426 263.726 36.7269 261.713 38.777C260.701 39.7937 259.62 41.0807 258.667 42.6237C257.712 44.1627 256.924 45.9736 256.479 47.9331C256.067 49.899 256.03 51.8744 256.257 53.6734C256.479 55.4739 256.925 57.0964 257.422 58.4454C258.397 61.1521 259.48 62.8461 258.946 63.4551C258.847 63.5672 258.687 63.626 258.473 63.626Z" fill="#F5E088"/>
<path d="M262.211 72.626C262.201 72.626 262.191 72.626 262.18 72.6252C260.785 72.6069 259.673 71.3461 259.693 69.8095C259.713 68.2856 260.842 67.0614 262.222 67.0614C262.233 67.0614 262.243 67.0614 262.253 67.0614C263.647 67.0797 264.76 68.3413 264.74 69.8763C264.72 71.4018 263.59 72.626 262.211 72.626Z" fill="#F5E088"/>
<path d="M247.123 35.2933C247.076 35.3545 244.78 33.6891 241.993 31.573C239.206 29.4568 236.985 27.6921 237.031 27.6309C237.078 27.5696 239.373 29.235 242.16 31.3512C244.947 33.4673 247.169 35.2321 247.123 35.2933Z" fill="#17282F"/>
<path d="M250.916 30.2455C250.857 30.2948 249.895 29.1946 248.767 27.7891C247.64 26.3845 246.775 25.2056 246.834 25.1579C246.894 25.1094 247.856 26.2096 248.983 27.615C250.11 29.0197 250.976 30.1978 250.916 30.2455Z" fill="#17282F"/>
<path d="M259.173 29.0838C259.101 29.1085 258.183 26.5488 257.123 23.3682C256.063 20.1861 255.263 17.5874 255.336 17.5628C255.408 17.5389 256.326 20.0978 257.386 23.28C258.445 26.4605 259.246 29.06 259.173 29.0838Z" fill="#17282F"/>
<path d="M269.32 26.8867C269.244 26.8962 269.002 25.6005 268.78 23.9907C268.558 22.381 268.439 21.0677 268.515 21.0574C268.59 21.047 268.833 22.3428 269.054 23.9526C269.277 25.5623 269.396 26.8755 269.32 26.8867Z" fill="#17282F"/>
<path d="M279.268 30.3358C279.194 30.3152 279.963 27.2888 280.985 23.5765C282.007 19.8633 282.895 16.8704 282.969 16.891C283.043 16.9117 282.274 19.9372 281.252 23.6504C280.23 27.3628 279.342 30.3565 279.268 30.3358Z" fill="#17282F"/>
<path d="M287.657 34.495C287.593 34.4529 288.348 33.1865 289.342 31.6658C290.336 30.1459 291.194 28.9487 291.258 28.9901C291.321 29.033 290.567 30.2993 289.574 31.8193C288.579 33.3392 287.722 34.5371 287.657 34.495Z" fill="#17282F"/>
<path d="M300.941 32.7549C300.986 32.8169 298.655 34.5817 295.735 36.697C292.815 38.8124 290.411 40.4754 290.366 40.4134C290.321 40.3514 292.652 38.5866 295.573 36.4713C298.493 34.3567 300.897 32.6921 300.941 32.7549Z" fill="#17282F"/>
</svg>
