<svg width="110" height="27" viewBox="0 0 110 27" fill="none" xmlns="http://www.w3.org/2000/svg">
<path d="M19.6289 12.4202C19.647 10.0331 16.8066 8.46797 14.7161 9.63587C14.0039 10.0554 13.4623 10.7043 13.184 11.4717C12.9897 11.9085 12.6871 12.2908 12.3037 12.5838C11.9203 12.8768 11.4682 13.0713 10.9887 13.1494C9.97392 13.3717 8.93805 13.4883 7.8983 13.4972C-0.933389 13.1415 -1.37487 26.0852 7.45883 26.3026C15.5789 26.3066 19.9333 19.8011 19.6289 12.4202ZM2.56421 19.894C2.56634 18.6153 3.08506 17.3894 4.00688 16.4847C4.9287 15.5799 6.17857 15.07 7.48302 15.0663H7.55761H7.68058H7.81161C9.02307 15.0673 10.2308 14.9347 11.412 14.6711L11.535 14.6395C11.8227 14.5715 12.1039 14.4796 12.3756 14.3648C12.5344 14.2947 12.6892 14.2162 12.8393 14.1296C12.8393 14.2205 12.8393 14.3154 12.8232 14.4122C12.7566 15.6651 12.6659 17.3764 12.42 19.811C11.9785 24.0814 8.83166 24.7158 7.5818 24.7158H7.48504C6.18096 24.7137 4.93087 24.2051 4.00855 23.3013C3.08624 22.3976 2.56687 21.1724 2.56421 19.894ZM17.7702 15.8093C17.2259 19.0245 15.8289 21.3801 13.6174 22.8088L13.4481 22.9195C13.3171 23.0064 13.1497 23.1171 12.9481 23.2416L12.9885 23.1744C13.0288 23.1072 13.0691 23.04 13.1074 22.9768L13.1739 22.8602L13.2888 22.6349C13.305 22.5974 13.3251 22.5618 13.3412 22.5262C13.3916 22.4175 13.442 22.3049 13.4884 22.1923V22.1764C13.5368 22.0579 13.5811 21.9354 13.6235 21.8109C13.6376 21.7713 13.6497 21.7298 13.6618 21.6903C13.69 21.6014 13.7182 21.5144 13.7424 21.4235C13.7565 21.3741 13.7686 21.3247 13.7827 21.2773C13.8049 21.1904 13.8251 21.1014 13.8452 21.0125C13.8573 20.9631 13.8694 20.9117 13.8795 20.8603C13.8997 20.7635 13.9178 20.6627 13.9339 20.5679C13.9339 20.5204 13.9501 20.477 13.9561 20.4295C13.9803 20.2833 13.9984 20.1351 14.0146 19.9829C14.2686 17.5167 14.3613 15.7777 14.4177 14.509C14.4319 14.2581 14.4439 14.0308 14.456 13.8154C14.456 13.7719 14.456 13.7245 14.456 13.683C14.456 13.6415 14.456 13.5585 14.4681 13.4854C14.4802 13.4123 14.4681 13.3668 14.4681 13.3115C14.4681 13.2562 14.4681 13.2107 14.4802 13.1593C14.4923 13.1079 14.4802 13.0427 14.4943 12.9894C14.5085 12.936 14.4943 12.9024 14.5085 12.8589C14.5226 12.8155 14.5085 12.7503 14.5246 12.7009C14.5407 12.6515 14.5246 12.6277 14.5387 12.5902C14.5528 12.5526 14.5508 12.4953 14.5589 12.4519C14.5669 12.4084 14.5589 12.3886 14.575 12.357C14.5911 12.3254 14.5911 12.274 14.5992 12.2384C14.6045 12.2118 14.6112 12.1854 14.6193 12.1594C14.6193 12.1258 14.6355 12.0922 14.6455 12.0626C14.6526 12.0485 14.6587 12.034 14.6637 12.0191L14.7141 11.9005L14.7262 11.8709L14.7423 11.8333C14.8087 11.6773 14.8999 11.5326 15.0124 11.4045L15.1152 11.2958C15.1214 11.2887 15.1282 11.2821 15.1354 11.2761L15.1656 11.2504L15.2221 11.201L15.2725 11.1614L15.3592 11.1002L15.3733 11.0903L15.4338 11.0547L15.47 11.035L15.5144 11.0093L15.5487 10.9935L15.5809 10.9757L15.6474 10.948L15.7079 10.9243L15.7946 10.8966C16.0125 10.8285 16.2425 10.8056 16.4699 10.8295C16.5264 10.8295 16.5828 10.8453 16.6433 10.8571L16.732 10.869C16.7925 10.8848 16.855 10.9026 16.8933 10.9164C16.9737 10.9472 17.0525 10.9822 17.1291 11.0211C17.3886 11.1582 17.6067 11.3599 17.7613 11.6058C17.916 11.8518 18.0018 12.1334 18.0101 12.4222V12.4934C18.0415 13.6037 17.9611 14.7144 17.7702 15.8093Z" fill="#FFCD00"/>
<path d="M16.3288 7.15975C16.926 7.15936 17.512 6.99999 18.024 6.69867C18.5361 6.39735 18.9551 5.96538 19.2363 5.44886C19.5174 4.93235 19.6503 4.35068 19.6205 3.76595C19.5908 3.18121 19.3997 2.61536 19.0676 2.1288C18.7354 1.64223 18.2747 1.25321 17.7346 1.00326C17.1946 0.753313 16.5954 0.651817 16.0011 0.709608C15.4067 0.767399 14.8396 0.982308 14.3601 1.3314C13.8807 1.68048 13.5069 2.15064 13.2787 2.6917L13.2203 2.83398C13.0428 3.3224 12.9875 3.84545 13.0591 4.35916C13.1307 4.87287 13.327 5.36223 13.6316 5.78611C13.9362 6.20998 14.3401 6.55598 14.8095 6.79501C15.2789 7.03404 15.7999 7.15913 16.3288 7.15975ZM14.7342 3.38137L14.7705 3.29047C14.9369 2.9088 15.2497 2.60659 15.6415 2.44908C16.0332 2.29156 16.4724 2.29139 16.8643 2.44858C17.2561 2.60578 17.5692 2.90774 17.7359 3.28927C17.9027 3.6708 17.9096 4.10129 17.7553 4.48781C17.601 4.87433 17.2979 5.18586 16.9113 5.35515C16.5247 5.52445 16.0857 5.53792 15.6891 5.39266C15.2924 5.2474 14.97 4.95506 14.7913 4.57875C14.6127 4.20245 14.5922 3.77237 14.7342 3.38137Z" fill="#FFCD00"/>
<path d="M6.36823 11.4067C6.96515 11.4066 7.55085 11.2476 8.06279 10.9467C8.57474 10.6458 8.99372 10.2143 9.275 9.69819C9.55629 9.18209 9.68931 8.60079 9.65988 8.01636C9.63045 7.43193 9.43967 6.8663 9.1079 6.37987C8.77613 5.89343 8.31583 5.50444 7.77614 5.25444C7.23645 5.00443 6.63763 4.90278 6.04361 4.96035C5.44959 5.01792 4.88267 5.23254 4.40337 5.5813C3.92406 5.93006 3.55038 6.39987 3.3222 6.94057L3.26373 7.08286C3.08628 7.57085 3.0309 8.09346 3.10226 8.60679C3.17362 9.12011 3.36962 9.60915 3.67381 10.0328C3.97799 10.4565 4.38147 10.8023 4.85033 11.0414C5.31919 11.2805 5.83974 11.4057 6.36823 11.4067ZM4.77768 7.63025L4.81397 7.53934C4.98036 7.15768 5.29319 6.85547 5.68492 6.69796C6.07666 6.54044 6.51587 6.54027 6.90774 6.69746C7.29961 6.85466 7.61269 7.15661 7.7794 7.53814C7.94611 7.91967 7.95308 8.35017 7.79879 8.73669C7.6445 9.12321 7.34133 9.43474 6.95474 9.60403C6.56816 9.77333 6.12916 9.7868 5.73253 9.64154C5.3359 9.49627 5.01345 9.20393 4.8348 8.82763C4.65615 8.45133 4.63564 8.02125 4.77768 7.63025Z" fill="#FFCD00"/>
<path d="M31.2183 14.2997C31.4864 14.4183 31.7908 14.5329 32.1134 14.6456L32.1859 14.6713L32.2504 14.695C32.5678 14.7817 32.9072 14.7413 33.1942 14.5827C33.4811 14.4241 33.692 14.1602 33.7805 13.8492C33.869 13.5381 33.8278 13.2054 33.666 12.9241C33.5042 12.6428 33.235 12.436 32.9177 12.3493C32.6657 12.2513 32.4206 12.1371 32.1839 12.0074C31.9151 11.8648 31.6912 11.6528 31.5366 11.3943C31.382 11.1358 31.3026 10.8407 31.307 10.5411C31.307 9.84552 31.561 9.35215 32.069 9.061C32.636 8.75481 33.2766 8.60395 33.9236 8.62427C34.5893 8.6162 35.2497 8.74057 35.865 8.98986C36.433 9.22327 36.9397 9.58003 37.3467 10.0333C37.4527 10.1453 37.5822 10.2334 37.7262 10.2918C37.8703 10.3501 38.0255 10.3772 38.1812 10.3712C38.4478 10.3801 38.7077 10.2881 38.907 10.1143C39.0418 10.0083 39.1525 9.8758 39.232 9.72538C39.3115 9.57497 39.358 9.40991 39.3686 9.24082C39.3596 8.93559 39.2362 8.6443 39.0219 8.4227C38.4352 7.71866 37.6656 7.18276 36.7943 6.87143C35.9176 6.53946 34.9864 6.36734 34.0466 6.36357C33.1316 6.35554 32.2253 6.53808 31.3876 6.8991C30.6152 7.22325 29.9415 7.73794 29.4322 8.39306C28.9418 9.03557 28.6837 9.81985 28.6984 10.6221C28.6984 11.5812 28.943 12.3565 29.4322 12.9481C29.9092 13.5317 30.5216 13.9951 31.2183 14.2997Z" fill="#FFCD00"/>
<path d="M39.4916 15.3704C39.0486 14.792 38.4651 14.3314 37.7942 14.0306C37.3512 13.8375 36.8976 13.6686 36.4355 13.5247C36.2875 13.4567 36.1273 13.418 35.964 13.4107C35.8007 13.4034 35.6376 13.4277 35.4839 13.4822C35.3302 13.5367 35.189 13.6203 35.0683 13.7283C34.9476 13.8363 34.8498 13.9666 34.7804 14.1116C34.711 14.2567 34.6715 14.4137 34.6641 14.5738C34.6566 14.7338 34.6814 14.8937 34.737 15.0444C34.7926 15.195 34.8779 15.3335 34.9881 15.4518C35.0983 15.5701 35.2311 15.666 35.3791 15.734L35.486 15.7716C35.9625 15.9223 36.4219 16.121 36.8568 16.3644C37.1216 16.5093 37.3407 16.7226 37.4904 16.9812C37.64 17.2397 37.7144 17.5336 37.7055 17.8307C37.7055 18.5263 37.4273 19.0296 36.8709 19.3405C36.2801 19.6586 35.6178 19.8277 34.9437 19.8325C34.1281 19.8565 33.3178 19.697 32.575 19.3662C31.8665 19.0106 31.2363 18.5218 30.7204 17.9275C30.5998 17.7975 30.4533 17.6929 30.2901 17.6202C30.1268 17.5474 29.9502 17.5081 29.7709 17.5047C29.5348 17.5013 29.3036 17.5704 29.1097 17.7023C28.7065 17.9658 28.5049 18.2852 28.5049 18.6607C28.5142 18.9337 28.6045 19.1981 28.7649 19.4215C29.4363 20.2968 30.3351 20.9793 31.3675 21.3976C32.4319 21.8182 33.5704 22.029 34.7179 22.0182C35.6318 22.0231 36.5372 21.8456 37.3789 21.4965C38.1739 21.1772 38.8716 20.6627 39.4049 20.0025C39.9258 19.3468 40.2006 18.5352 40.183 17.7042C40.183 16.7412 39.9525 15.9633 39.4916 15.3704Z" fill="#FFCD00"/>
<path d="M77.7073 14.2997C77.9754 14.4182 78.2798 14.5328 78.6003 14.6455L78.6749 14.6712L78.7374 14.6949C79.0547 14.7816 79.3942 14.7412 79.6811 14.5826C79.9681 14.424 80.179 14.1602 80.2675 13.8491C80.3559 13.538 80.3148 13.2053 80.1529 12.924C79.9911 12.6427 79.722 12.436 79.4047 12.3492C79.1528 12.2508 78.9077 12.1366 78.6709 12.0073C78.4023 11.8644 78.1787 11.6523 78.0241 11.3939C77.8696 11.1355 77.79 10.8406 77.7939 10.541C77.7939 9.84544 78.0479 9.35207 78.556 9.06092C79.1236 8.75456 79.7649 8.60371 80.4126 8.62419C81.0782 8.61651 81.7386 8.74086 82.3539 8.98978C82.9217 9.22272 83.4278 9.57958 83.8336 10.0332C83.94 10.1445 84.0696 10.2319 84.2137 10.2896C84.3577 10.3472 84.5128 10.3737 84.6682 10.3671C84.9321 10.3754 85.1894 10.285 85.3879 10.1142C85.5224 10.0081 85.6328 9.87556 85.7119 9.72513C85.7911 9.57471 85.8373 9.40971 85.8475 9.24074C85.8385 8.93589 85.7159 8.64483 85.5028 8.42262C84.9153 7.71851 84.1451 7.18263 83.2732 6.87135C82.3971 6.53957 81.4666 6.36746 80.5275 6.36349C79.6118 6.35525 78.7048 6.53779 77.8665 6.89902C77.0944 7.22371 76.4208 7.7383 75.9111 8.39298C75.4207 9.0355 75.1625 9.81977 75.1773 10.6221C75.1773 11.5812 75.4219 12.3565 75.9111 12.948C76.3911 13.5327 77.007 13.9962 77.7073 14.2997Z" fill="#FFCD00"/>
<path d="M85.9785 15.3701C85.5357 14.7923 84.953 14.3318 84.2831 14.0303C83.8399 13.8375 83.3863 13.6686 82.9244 13.5244C82.7755 13.449 82.6126 13.4039 82.4456 13.3917C82.2785 13.3795 82.1106 13.4004 81.952 13.4533C81.7934 13.5061 81.6473 13.5898 81.5224 13.6993C81.3975 13.8088 81.2964 13.9418 81.2252 14.0905C81.154 14.2391 81.1141 14.4003 81.1079 14.5644C81.1017 14.7286 81.1294 14.8922 81.1892 15.0456C81.249 15.199 81.3398 15.339 81.4561 15.4573C81.5724 15.5755 81.7118 15.6695 81.866 15.7337L81.9728 15.7712C82.4494 15.922 82.9088 16.1206 83.3437 16.3641C83.6084 16.509 83.8276 16.7223 83.9773 16.9808C84.1269 17.2394 84.2013 17.5332 84.1924 17.8304C84.1924 18.526 83.9142 19.0292 83.3578 19.3401C82.767 19.6585 82.1047 19.8276 81.4306 19.8322C80.615 19.8562 79.8047 19.6966 79.0619 19.3658C78.3533 19.0103 77.7231 18.5214 77.2072 17.9272C77.0866 17.7971 76.9402 17.6925 76.777 17.6198C76.6137 17.5471 76.437 17.5078 76.2577 17.5043C76.0217 17.5012 75.7906 17.5703 75.5965 17.7019C75.1934 17.9647 74.9918 18.2948 74.9918 18.6603C75.0002 18.9332 75.0899 19.1977 75.2498 19.4212C75.9211 20.2965 76.8199 20.9789 77.8523 21.3973C78.9167 21.8178 80.0552 22.0287 81.2028 22.0178C82.1167 22.0228 83.0221 21.8453 83.8638 21.4961C84.6593 21.1769 85.3577 20.6624 85.8918 20.0021C86.4113 19.3458 86.6852 18.5345 86.6679 17.7039C86.6692 16.7409 86.4394 15.9629 85.9785 15.3701Z" fill="#FFCD00"/>
<path d="M56.4071 14.5129C56.1421 14.7491 55.7955 14.8776 55.4374 14.8726H45.0898C45.2242 16.2756 45.7685 17.3994 46.7227 18.2439C47.6713 19.0883 48.915 19.5426 50.1961 19.5126C50.9809 19.5439 51.7633 19.4091 52.4902 19.1173C53.064 18.8573 53.5904 18.5069 54.0485 18.0799C54.3022 17.9181 54.5966 17.8285 54.8992 17.821C55.0559 17.8173 55.2117 17.8463 55.3563 17.9059C55.5008 17.9655 55.6308 18.0544 55.7378 18.1668C55.8474 18.2714 55.9345 18.3965 55.9941 18.5346C56.0536 18.6727 56.0844 18.8211 56.0845 18.9711C56.0766 19.1852 56.0195 19.3948 55.9176 19.5843C55.8157 19.7738 55.6716 19.9384 55.4959 20.0659C54.8427 20.6769 54.0736 21.1563 53.232 21.4768C52.3208 21.8561 51.3412 22.0523 50.3513 22.0539C48.8922 22.0824 47.4502 21.7422 46.1642 21.0658C44.9829 20.437 44.0125 19.4864 43.3702 18.3288C42.7022 17.1073 42.3636 15.7387 42.3864 14.3529C42.352 12.8754 42.6987 11.4133 43.3944 10.1022C44.0105 8.9456 44.935 7.97445 46.0695 7.29211C47.1389 6.657 48.3643 6.31892 49.6146 6.31405C50.8649 6.30918 52.093 6.63769 53.1675 7.26444C54.2673 7.89697 55.1807 8.7985 55.8184 9.88085C56.4937 11.0214 56.8491 12.3168 56.8486 13.6355C56.8398 13.8035 56.7961 13.968 56.7202 14.1189C56.6443 14.2698 56.5377 14.4039 56.4071 14.5129ZM46.7952 9.75833C45.9889 10.363 45.46 11.2997 45.2087 12.5684H53.8771V12.3372C53.8362 11.8469 53.6906 11.3706 53.45 10.9389C53.2093 10.5073 52.8789 10.13 52.4801 9.83145C51.682 9.18639 50.6781 8.83668 49.6437 8.84338C48.616 8.82405 47.612 9.14656 46.7952 9.75833Z" fill="#FFCD00"/>
<path d="M102.894 14.5129C102.629 14.7491 102.282 14.8776 101.924 14.8726H91.5786C91.713 16.2756 92.2566 17.3994 93.2095 18.2439C94.1608 19.0905 95.4085 19.5449 96.6929 19.5126C97.4771 19.5438 98.2588 19.409 98.985 19.1173C99.5591 18.8578 100.086 18.5073 100.543 18.0799C100.798 17.9147 101.095 17.8223 101.4 17.8131C101.557 17.8097 101.712 17.8388 101.856 17.8984C102 17.958 102.13 18.0467 102.237 18.1589C102.345 18.2654 102.431 18.3922 102.488 18.5317C102.545 18.6713 102.574 18.8207 102.571 18.9711C102.564 19.1853 102.507 19.3951 102.405 19.5847C102.303 19.7743 102.159 19.9388 101.983 20.0659C101.33 20.6765 100.562 21.1558 99.7208 21.4768C98.8096 21.8559 97.83 22.0521 96.8401 22.0539C95.3804 22.0824 93.9377 21.7422 92.6511 21.0658C91.4698 20.4375 90.5 19.4868 89.859 18.3288C89.1894 17.1078 88.85 15.739 88.8733 14.3529C88.8388 12.8754 89.1855 11.4133 89.8812 10.1022C90.4979 8.946 91.4223 7.97499 92.5563 7.29211C93.6257 6.657 94.8511 6.31892 96.1014 6.31405C97.3517 6.30918 98.5798 6.63769 99.6543 7.26444C100.755 7.89684 101.669 8.79837 102.307 9.88085C102.981 11.0219 103.336 12.3171 103.335 13.6355C103.327 13.8035 103.283 13.968 103.207 14.1189C103.131 14.2698 103.025 14.4039 102.894 14.5129ZM93.282 9.75833C92.4757 10.363 91.9468 11.2997 91.6955 12.5684H100.364V12.3372C100.325 11.848 100.182 11.3723 99.9433 10.9407C99.7051 10.5091 99.3773 10.1312 98.981 9.83145C98.1827 9.18669 97.1789 8.83701 96.1446 8.84338C95.1121 8.82106 94.1027 9.14372 93.282 9.75833Z" fill="#FFCD00"/>
<path d="M106.142 8.60021C105.897 8.39996 105.775 8.07785 105.775 7.63388V7.17344C105.775 6.71366 105.909 6.3843 106.178 6.18537C106.447 5.98644 106.853 5.89093 107.398 5.89883C107.946 5.89883 108.343 5.99961 108.589 6.20118C108.835 6.40274 108.957 6.7242 108.956 7.16553V7.62597C108.956 8.08839 108.828 8.41775 108.573 8.61404C108.319 8.81166 107.916 8.90256 107.363 8.90256C106.811 8.90256 106.388 8.80178 106.142 8.60021Z" fill="#FFCD00"/>
<path d="M108.377 21.3817C108.243 21.5071 108.085 21.605 107.912 21.6698C107.739 21.7346 107.554 21.765 107.369 21.7592C107.188 21.7643 107.007 21.7335 106.838 21.6686C106.669 21.6038 106.515 21.5062 106.385 21.3817C106.257 21.265 106.154 21.1231 106.085 20.9651C106.015 20.8072 105.98 20.6368 105.982 20.4648V12.003C105.981 11.831 106.016 11.6606 106.085 11.5027C106.154 11.3448 106.257 11.2029 106.385 11.086C106.515 10.9619 106.669 10.8646 106.838 10.7997C107.007 10.7349 107.188 10.7039 107.369 10.7086C107.743 10.6985 108.106 10.8343 108.377 11.086C108.506 11.2028 108.608 11.3447 108.678 11.5026C108.747 11.6606 108.782 11.831 108.78 12.003V20.4648C108.782 20.6368 108.748 20.8073 108.678 20.9652C108.609 21.1231 108.506 21.265 108.377 21.3817Z" fill="#FFCD00"/>
<path d="M72.49 12.5385V20.3759C72.494 20.5587 72.4604 20.7404 72.3911 20.9102C72.3218 21.08 72.2183 21.2343 72.0868 21.364C71.956 21.4948 71.7988 21.5975 71.6253 21.6656C71.4517 21.7336 71.2656 21.7655 71.0789 21.7592C70.8958 21.7642 70.7137 21.7317 70.5443 21.6636C70.3749 21.5955 70.2219 21.4935 70.0951 21.364C69.9632 21.2346 69.8594 21.0803 69.7901 20.9105C69.7208 20.7406 69.6874 20.5588 69.6919 20.3759V12.5682C69.6919 11.4339 69.4278 10.5327 68.8976 9.85888C68.3675 9.18502 67.5067 8.85105 66.3112 8.85105C65.5691 8.8411 64.8363 9.01439 64.1804 9.35497C63.5731 9.67131 63.0609 10.138 62.6947 10.7086C62.3353 11.2645 62.1463 11.91 62.1504 12.5682V20.3759C62.1546 20.5587 62.121 20.7405 62.0517 20.9103C61.9824 21.0801 61.8789 21.2344 61.7472 21.364C61.6162 21.4946 61.459 21.5972 61.2855 21.6652C61.112 21.7333 60.926 21.7653 60.7393 21.7592C60.5523 21.7671 60.3657 21.736 60.1919 21.6678C60.0182 21.5997 59.8612 21.4961 59.7313 21.364C59.6039 21.2324 59.5044 21.0772 59.4386 20.9076C59.3729 20.738 59.3422 20.5573 59.3483 20.3759V8.04479C59.3443 7.86198 59.3779 7.68025 59.4472 7.51048C59.5164 7.3407 59.6199 7.18637 59.7515 7.05672C59.8785 6.92696 60.0318 6.82474 60.2016 6.75667C60.3714 6.68859 60.5539 6.65617 60.7373 6.66149C60.924 6.65543 61.11 6.68743 61.2835 6.75546C61.457 6.82349 61.6142 6.92607 61.7452 7.05672C61.8768 7.1863 61.9804 7.34062 62.0497 7.51041C62.119 7.6802 62.1525 7.86196 62.1484 8.04479V9.05262C62.6941 8.2533 63.4223 7.58956 64.2752 7.11402C65.1577 6.59412 66.1686 6.32077 67.1982 6.32357C70.7261 6.32357 72.49 8.39522 72.49 12.5385Z" fill="#FFCD00"/>
</svg>
